<?xml version="1.0" standalone="no"?>
<!DOCTYPE svg PUBLIC "-//W3C//DTD SVG 1.1//EN" "http://www.w3.org/Graphics/SVG/1.1/DTD/svg11.dtd" >
<svg>
<metadata>
Created by FontForge 20090622 at Wed Mar 30 15:05:03 2016
 By deploy user
Copyright (c) Typographer Mediengestaltung, 2000. All rights reserved. Full character set added by Dieter Steffmann, Kreuztal.
</metadata>
<defs>
<font id="GoudyMediaeval-Regular" horiz-adv-x="377" >
  <font-face 
    font-family="Goudy Mediaeval"
    font-weight="400"
    font-stretch="normal"
    units-per-em="1024"
    panose-1="0 0 0 0 0 0 0 0 0 0"
    ascent="819"
    descent="-205"
    x-height="402"
    cap-height="706"
    bbox="-112 -378 1460 854"
    underline-thickness="1"
    underline-position="-2"
    unicode-range="U+000D-U+E002"
  />
<missing-glyph horiz-adv-x="543" 
d="M51 102h307v476h-307v-120v-356zM0 629h410v-578h-206h-204v578z" />
    <glyph glyph-name=".notdef" horiz-adv-x="543" 
d="M51 102h307v476h-307v-120v-356zM0 629h410v-578h-206h-204v578z" />
    <glyph glyph-name=".null" horiz-adv-x="0" 
 />
    <glyph glyph-name="nonmarkingreturn" unicode="&#xd;" horiz-adv-x="0" 
 />
    <glyph glyph-name="space" unicode=" " horiz-adv-x="349" 
 />
    <glyph glyph-name="exclam" unicode="!" horiz-adv-x="195" 
d="M141 738q-24 -8 -98 -35q5 -146 19 -587l70 28q8 308 9 594zM160 12q-29 53 -57 74l-65 -62q30 -57 52 -70q28 9 70 58z" />
    <glyph glyph-name="quotedbl" unicode="&#x22;" horiz-adv-x="379" 
d="M353 626q7 6 7 14q-1 9 -11 19l-57 56q-3 3 -7 3q-6 0 -14 -7l-57 -60q-5 -6 -5 -12q0 -7 6 -15l41 -51l-8 -8q-7 -8 -24 -24q-13 -14 -13 -21q0 -24 11 -24t18 6zM179 626q7 6 6 14q0 9 -10 19l-57 56q-3 3 -7 3q-6 0 -14 -7l-57 -60q-6 -6 -5 -12q0 -7 6 -15l41 -51
l-8 -8q-7 -8 -24 -24q-13 -14 -13 -21q0 -24 11 -24t18 6z" />
    <glyph glyph-name="numbersign" unicode="#" horiz-adv-x="400" 
d="M368 174q0 39 -21 66q-20 27 -49 26l-75 -3v96l90 -40l27 95q-6 2 -24 10l-8 -28q-29 10 -40 13q-27 7 -45 7v40h-33v-40q-35 -6 -71 -20q-13 -5 -24 -15q-12 -10 -21 -26q-8 -14 -14 -31q-5 -17 -5 -35q0 -41 26 -76q25 -35 58 -35h51v-126q-32 2 -123 61l-49 -118
q8 -2 30 -8q6 10 23 43q24 -7 42 -13l27 -8q22 -6 50 -6v-108h33v108q87 7 129 101q16 35 16 70zM190 254h-15q-28 0 -44 18q-16 19 -16 46q0 56 48 56q14 0 27 -10v-110zM304 141q0 -44 -16 -71q-17 -27 -42 -27q-13 0 -23 5v136q23 13 31 13q50 0 50 -56z" />
    <glyph glyph-name="dollar" unicode="$" horiz-adv-x="608" 
d="M572 233q0 65 -29 106q-30 42 -77 42h-141v162q17 -4 31 -7q15 -4 25 -8q32 -17 53 -31q22 -15 35 -25q25 0 30 62q3 35 25 94q-11 7 -35 21l-20 -42q-89 26 -144 26v54h-42v-54q-103 -5 -161 -48q-72 -54 -72 -155q0 -77 31 -121q32 -44 87 -46q71 -3 115 -3v-234
q-27 5 -50 13t-43 18q-12 8 -43 26l-79 49l-69 -204l42 -16q7 23 27 94q135 -53 215 -53v-191h42v191q91 4 163 74q84 81 84 206zM283 381q-14 -3 -56 -10q-4 -1 -8 -1q-74 0 -74 108q0 97 74 97h30q18 -2 34 -15v-179zM469 179q0 -78 -28 -124q-28 -47 -74 -47
q-19 0 -42 10v63v186q27 11 56 11q88 0 88 -99z" />
    <glyph glyph-name="percent" unicode="%" horiz-adv-x="465" 
d="M248 480q0 127 -86 127q-50 0 -88 -43q-38 -42 -38 -98q0 -62 26 -95q27 -34 73 -34q113 0 113 143zM419 580q1 2 1 6q0 16 -21 16q-26 0 -35 -19l-255 -511l-29 -52t-35 -53q-27 -39 -27 -50q0 -4 18 -9q18 -4 37 -4q18 0 27 6zM429 103q0 120 -80 120q-27 0 -51 -11
q-23 -11 -39 -32q-15 -19 -25 -47q-9 -28 -9 -61q0 -56 23 -87t63 -31q118 0 118 149zM198 436q0 -69 -38 -69q-29 0 -51 36q-23 38 -23 75q0 36 13 64q14 30 31 30q31 0 49 -37q19 -37 19 -99zM379 66q0 -77 -38 -77q-29 0 -48 26q-20 26 -20 67q0 47 12 77q11 30 28 30
q14 0 25 -9q12 -10 21 -26q10 -17 15 -40t5 -48z" />
    <glyph glyph-name="ampersand" unicode="&#x26;" horiz-adv-x="732" 
d="M728 360q0 16 -22 27q-22 10 -83 24l-46 -106l-22 -50q-24 -46 -44 -46q-10 0 -25 36q-10 25 -20 44q-9 18 -17 30q-33 47 -85 67l-102 39q-19 8 -37 42q-18 35 -18 67q0 31 25 54q26 22 64 22q34 0 58 -37q33 -49 35 -51q18 0 36 20q18 19 18 42q0 21 -40 46
q-37 25 -75 25q-87 0 -148 -48q-59 -47 -59 -121q0 -45 45 -105l-83 -59q-18 -13 -36 -58q-16 -40 -16 -79q0 -95 69 -165q72 -69 168 -69q23 0 44 5q22 6 43 19q22 14 46 34q24 21 54 50q74 -96 117 -96q36 0 55 22l47 53l37 42l-30 20l-50 -56q-2 -3 -11 -3q-27 0 -50 22
q-30 31 -39 99q28 23 66 97q31 63 40 63q15 0 61 -25q30 41 30 63zM433 100l-58 -66q-16 -18 -56 -18q-70 0 -125 50q-70 60 -70 167q0 26 7 50q6 23 17 40q13 17 28 27t34 10q72 0 132 -59q22 -20 34 -47l23 -53q27 -71 34 -101z" />
    <glyph glyph-name="quotesingle" unicode="'" horiz-adv-x="236" 
d="M193 626q6 6 6 14q0 9 -11 19l-57 56q-3 3 -7 3q-6 0 -13 -7l-58 -60q-5 -6 -5 -12q0 -7 6 -15l41 -51l-7 -8l-25 -24q-13 -14 -13 -21q0 -24 11 -24q12 0 18 6z" />
    <glyph glyph-name="parenleft" unicode="(" horiz-adv-x="333" 
d="M283 751q0 7 -1 14l-1 7q-100 82 -124 82q-17 0 -34 -31q-18 -31 -28 -81l-40 -185q-8 -41 -13 -91q-4 -49 -4 -110q0 -169 38 -317q30 -123 80 -208q43 -76 71 -76q10 0 18 2q-81 133 -104 221q-23 90 -23 261q0 270 87 510q8 23 25 23q20 0 53 -21z" />
    <glyph glyph-name="parenright" unicode=")" horiz-adv-x="333" 
d="M255 355q0 192 -55 381q-5 20 -11 38q-6 19 -11 38q-17 42 -37 42q-33 0 -117 -96q0 -3 15 -22q5 5 11 10q6 6 12 11q10 8 17 9q16 1 27 -22q81 -258 81 -485q0 -148 -18 -257q-10 -56 -27 -116t-42 -125q9 -2 18 -2q40 0 88 187q49 197 49 409z" />
    <glyph glyph-name="asterisk" unicode="*" horiz-adv-x="333" 
d="M248 537q0 18 -24 38q-8 8 -17 14t-18 13q12 8 34 25q25 19 25 38q0 25 -27 25q-22 0 -44 -18q-4 53 -30 53q-27 0 -31 -55q-24 20 -48 20q-12 0 -19 -9q-8 -9 -8 -21q0 -21 53 -53q-50 -40 -50 -58q0 -31 28 -31q19 0 44 28q0 -62 31 -62q27 0 27 26q0 3 -3 20
q-2 9 -3 13v5q26 -38 51 -38q6 0 18 10q11 9 11 17z" />
    <glyph glyph-name="plus" unicode="+" horiz-adv-x="545" 
d="M498 285l-28 -69q-43 1 -173 5q-1 -53 -2 -212l-70 -21v233q-158 -6 -192 -6q0 -3 1 4q2 6 6 23q10 43 18 43q46 5 87 7t80 1v194q18 5 72 19v-213z" />
    <glyph glyph-name="comma" unicode="," horiz-adv-x="248" 
d="M184 9q7 8 7 15q-1 10 -11 19l-57 55q-6 6 -10 6q-1 0 -1 -1q-2 0 -10 -9l-57 -59q-5 -6 -5 -13t6 -15l41 -49l-14 -14l-14 -16q-9 -9 -9 -16q0 -25 11 -25q13 0 18 7z" />
    <glyph glyph-name="hyphen" unicode="-" horiz-adv-x="371" 
d="M342 272q0 15 -31 15h-4q-74 -5 -221 -14q-47 -3 -47 -37q0 -12 8 -21q8 -10 19 -10q74 3 223 8q22 1 38 19q15 19 15 40z" />
    <glyph glyph-name="period" unicode="." horiz-adv-x="236" 
d="M170 7q8 10 8 17t-11 16l-54 44q-4 3 -8 3q-5 0 -11 -6q-14 -17 -44 -50q-8 -11 -8 -17q0 -8 10 -15l48 -42q7 -6 13 -6q7 0 14 7z" />
    <glyph glyph-name="slash" unicode="/" horiz-adv-x="403" 
d="M407 680q2 6 2 8q0 26 -24 26q-12 0 -18 -13l-274 -549q-46 -93 -67 -126q-4 -7 -29 -33q-16 -17 -16 -31q0 -31 48 -31q15 0 26 7z" />
    <glyph glyph-name="zero" unicode="0" horiz-adv-x="442" 
d="M421 209q0 242 -171 242q-99 0 -161 -67q-60 -67 -60 -175q0 -100 52 -163q52 -62 134 -62q33 0 76 12q47 12 71 31q59 43 59 182zM347 118q0 -86 -63 -86q-78 0 -122 61q-44 62 -44 170q0 139 67 139q66 0 114 -86q48 -87 48 -198z" />
    <glyph glyph-name="one" unicode="1" horiz-adv-x="362" 
d="M271 23v427l-231 -35v-35q28 4 111 15q18 3 25 -9q7 -13 7 -50v-227q0 -30 -2 -61t-6 -62z" />
    <glyph glyph-name="two" unicode="2" horiz-adv-x="526" 
d="M501 45v15q0 13 -2 18q-4 8 -23 8h-238q159 118 159 229q0 59 -51 98q-50 38 -131 38q-82 0 -135 -34q-54 -33 -54 -84q0 -30 21 -50t48 -20q4 8 13 24q-38 21 -38 41q0 26 21 43q22 16 59 16q62 0 104 -32q43 -32 43 -77q0 -30 -22 -74q-23 -49 -54 -77q-36 -32 -94 -58
q-17 -9 -36 -16l-36 -16v-37h183q38 0 118 -6q40 -4 70 -6q30 -1 50 -1q6 0 10 1t7 7q3 5 4 17q2 12 4 33z" />
    <glyph glyph-name="three" unicode="3" horiz-adv-x="469" 
d="M450 -103q0 69 -39 113q-38 44 -144 91q75 46 106 89q30 43 30 99q0 68 -54 114q-53 48 -135 48q-73 0 -133 -39q-44 -29 -56 -56l21 -21q56 44 100 44q136 0 136 -115q0 -68 -48 -114q-48 -47 -138 -60l-7 -36q-3 -15 -5 -26h100q61 0 108 -51q49 -51 49 -110
q0 -74 -53 -127q-55 -55 -124 -55q-52 0 -118 15l-15 -24q35 -30 111 -30q148 0 229 68q79 67 79 183z" />
    <glyph glyph-name="four" unicode="4" horiz-adv-x="596" 
d="M572 61q-34 6 -139 21v330q0 25 -10 25t-20 -9l-23 -22l-24 -23l-82 -81l-102 -111l-73 -83l-48 -57q-29 -32 -29 -44t34 -12q99 2 295 5v-307q20 5 80 22q1 71 2 285l112 -16zM351 82q-39 1 -87 -1q-49 -2 -108 -7h-4q-22 0 -22 12q0 2 80 99q112 136 133 136q8 0 8 -55
v-184z" />
    <glyph glyph-name="five" unicode="5" horiz-adv-x="416" 
d="M381 -57q0 64 -39 128q-39 63 -94 88q-35 15 -65 30q-29 15 -53 29q-47 29 -47 36q0 4 47 88q10 22 69 22h158q19 40 19 50q0 12 -4 14q-3 2 -20 2h-213l-106 -179q-6 -11 -6 -27q0 -40 53 -73q141 -91 173 -126q31 -34 31 -103q0 -97 -46 -166q-40 -60 -82 -60
q-10 0 -17 4l-81 45q-5 3 -10 3q-15 0 -31 -19q-14 -21 -14 -34q0 -16 37 -38q39 -24 75 -24q57 0 122 46q64 43 102 112q42 76 42 152z" />
    <glyph glyph-name="six" unicode="6" horiz-adv-x="438" 
d="M413 193q0 110 -47 174t-126 64q-34 0 -66 -15q-10 -5 -19 -11q-10 -6 -20 -11q55 170 136 179q59 7 80 13q21 7 21 19q0 24 -19 24h-105q-87 0 -155 -104q-66 -103 -66 -235q0 -130 61 -220q63 -89 152 -89q70 0 121 61q52 63 52 151zM328 161q0 -53 -17 -86
q-16 -32 -43 -32q-54 0 -101 84q-43 78 -43 147q0 80 67 80q63 0 100 -53t37 -140z" />
    <glyph glyph-name="seven" unicode="7" horiz-adv-x="566" 
d="M547 418q0 29 -58 29l-303 3h-16q-66 0 -95 -8q-33 -8 -38 -28q-24 -88 -24 -92q10 -6 29 -16q30 45 94 46l292 9q30 3 30 -15l-200 -405q-21 -43 -40 -78q-18 -35 -35 -62l-29 -46l-50 -73q47 -21 65 -21q12 0 15 6q363 735 363 751z" />
    <glyph glyph-name="eight" unicode="8" horiz-adv-x="441" 
d="M416 185q0 47 -26 79q-28 34 -95 75q86 78 86 141q0 65 -47 106q-48 42 -116 42q-78 0 -122 -45t-44 -123q0 -21 3 -36t12 -31q8 -14 21 -29q12 -15 33 -33q-53 -30 -74 -63q-20 -34 -20 -89q0 -85 51 -142q52 -56 132 -56q88 0 146 58q60 58 60 146zM292 457
q0 -40 -18 -66t-47 -26q-38 0 -66 43q-29 42 -29 96q0 35 20 56q20 22 50 22q40 0 65 -35t25 -90zM333 135q0 -40 -20 -67q-19 -27 -48 -27q-53 0 -104 51q-52 52 -53 116q0 2 1 5q2 76 53 76q68 0 120 -46q51 -46 51 -108z" />
    <glyph glyph-name="nine" unicode="9" horiz-adv-x="441" 
d="M415 116q0 78 -14 140t-41 105q-26 43 -64 67q-38 23 -85 23q-84 0 -136 -60t-52 -152q0 -105 51 -171q52 -66 134 -66q35 0 70 26t32 26q7 0 7 -30q0 -72 -44 -185q-21 -52 -54 -92q-39 -43 -76 -43h-62q-1 -8 -5 -33q-1 0 16 -3q18 -4 45 -4q124 0 201 126
q77 124 77 326zM313 168q0 -92 -67 -92q-63 0 -101 58q-37 57 -37 153q0 108 51 108q63 0 108 -69q46 -70 46 -158z" />
    <glyph glyph-name="colon" unicode=":" horiz-adv-x="220" 
d="M170 272q8 11 8 17q0 7 -11 16l-54 44q-4 3 -8 3q-5 0 -11 -6q-14 -17 -44 -50q-8 -10 -8 -16q0 -8 10 -17l48 -42q7 -6 13 -6q7 0 14 7zM170 14q8 11 8 17q0 7 -11 16l-54 44q-4 3 -8 3q-5 0 -11 -6q-14 -17 -44 -50q-8 -10 -8 -16q0 -8 10 -17l48 -41q7 -6 13 -6
q7 0 14 7q14 17 43 49z" />
    <glyph glyph-name="semicolon" unicode=";" horiz-adv-x="230" 
d="M170 272q8 11 8 17q0 7 -11 16l-54 44q-4 3 -8 3q-5 0 -11 -6q-14 -17 -44 -50q-8 -10 -8 -16q0 -8 10 -17l48 -42q7 -6 13 -6q7 0 14 7zM184 9q7 8 7 15q-1 10 -11 19l-57 55q-6 6 -10 6q-1 0 -1 -1q-2 0 -10 -9l-57 -59q-5 -6 -5 -13t6 -15l41 -49l-14 -14l-14 -16
q-9 -9 -9 -16q0 -25 11 -25q13 0 18 7z" />
    <glyph glyph-name="less" unicode="&#x3c;" horiz-adv-x="436" 
d="M385 63q0 17 -31 40q-26 23 -60 36l-111 48q-44 14 -44 32q0 8 36 32q65 40 128 58q26 5 43 9q18 4 29 6t11 23q0 12 -3 29q-3 13 -12 13h-1q-9 -2 -21 -6q-67 -33 -106 -50q-70 -30 -133 -72q-71 -48 -71 -67q0 -14 56 -44l123 -62l101 -50q3 -2 6 -6q3 -3 8 -9
q6 -8 10 -8q10 0 26 19q16 17 16 29z" />
    <glyph glyph-name="equal" unicode="=" horiz-adv-x="524" 
d="M485 313q0 15 -31 15h-3q-122 -5 -365 -14q-47 -1 -47 -38q0 -11 8 -21q8 -9 19 -9q122 2 366 8q21 0 38 20q15 17 15 39zM485 154q0 14 -31 14h-3q-122 -5 -365 -13q-47 -1 -47 -38q0 -12 8 -21q8 -10 19 -10q122 3 366 8q21 0 38 21q15 16 15 39z" />
    <glyph glyph-name="greater" unicode="&#x3e;" horiz-adv-x="436" 
d="M395 234q0 14 -56 45l-123 61l-101 50q-4 4 -14 17q-6 8 -10 8q-10 0 -26 -20t-16 -30q0 -18 31 -40q26 -23 60 -36l111 -48q44 -14 44 -32q0 -8 -36 -32q-64 -40 -128 -58q-48 -4 -72 -1q-11 -2 -11 -24q0 -11 3 -28q3 -14 12 -14h2q5 1 20 6q67 20 106 37q70 30 134 72
q70 47 70 67z" />
    <glyph glyph-name="question" unicode="?" horiz-adv-x="566" 
d="M537 540q0 80 -50 138q-49 59 -115 59q-90 0 -174 -65q-72 -54 -123 -137q-46 -76 -46 -122q0 -96 43 -146l72 35q-5 11 -10 24q-6 12 -11 23q-14 38 -14 79q0 111 61 183q63 73 158 73q55 0 88 -38q33 -39 33 -103q0 -101 -67 -222q-69 -127 -176 -205q18 -6 40 -6
q46 32 63 50l104 103q52 52 87 132q37 81 37 145zM310 12q-28 53 -56 74l-66 -62q30 -57 53 -70q27 9 69 58z" />
    <glyph glyph-name="at" unicode="@" horiz-adv-x="646" 
d="M639 148q-201 -91 -304 -91q-94 0 -157 59q-68 61 -68 162q0 107 84 185q74 71 151 71q95 0 155 -46q61 -48 61 -136q0 -91 -105 -135q-16 -7 -32 -7l54 202q-15 0 -62 1q-4 -4 -10 -24q-19 30 -54 30q-119 0 -153 -133q-9 -35 -9 -59q0 -82 73 -82q8 0 29 10l57 27
q-7 -35 11 -35q55 0 118 33q130 69 130 172q0 126 -89 188q-69 48 -169 48q-114 0 -209 -91q-99 -99 -99 -239q0 -101 82 -178q79 -76 176 -76q29 0 84 15l151 42q65 26 95 40q8 30 9 47zM390 343q-6 -24 -25 -95q-9 -27 -17 -31l-48 -21q-6 -2 -7 -2q-30 0 -30 57
q0 27 8 59q22 76 56 76q33 0 52 -18q12 -12 12 -21q0 -2 -1 -4z" />
    <glyph glyph-name="A" unicode="A" horiz-adv-x="713" 
d="M711 0v27q-19 5 -33 7q-13 3 -24 4q-15 2 -19 28l-42 237q-10 57 -22 114l-23 112q-14 67 -14 93q0 20 10 21q22 5 66 13v31q-41 0 -81 -3q-41 -3 -84 -8q-46 -6 -111 -6q-51 0 -122 6t-163 17v-34q31 -18 66 -19q37 -2 111 -5q13 -2 13 -19q0 -15 -14 -46
q-19 -48 -19 -51l-67 -226l-52 -177q-14 -45 -15 -49q-11 -21 -42 -32q-8 -2 -13 -4t-7 -3v-28q24 0 60 3q34 3 45 3q60 0 82 3t20 3v30q-15 0 -60 2q-19 1 -19 38q0 39 27 139q15 57 40 69q23 13 125 19q8 1 26 3q18 1 45 5q29 5 43 6l14 2q26 0 31 -50l18 -199
q2 -21 -12 -26q-21 -6 -35 -11l-23 -6v-27q86 6 138 6q35 0 136 -12zM469 404q0 -19 -24 -21q-59 -3 -179 -8h-9q-42 0 -42 17q0 25 22 86l54 156q30 0 120 1l41 -151q17 -64 17 -80z" />
    <glyph glyph-name="B" unicode="B" horiz-adv-x="629" 
d="M595 198q0 31 -7 57t-25 47q-16 23 -43 42q-26 20 -66 39q55 32 77 64q22 33 22 83q0 73 -48 119t-125 46q-63 0 -92 -19l-66 -42q-20 -14 -57 -9q-51 5 -154 17v-33q23 -3 91 -11q33 -5 33 -126v-293q0 -59 -6 -93l-107 -25v-34q55 10 86 15t40 5q29 0 124 -33
q65 -21 96 -21q97 0 161 58q66 60 66 147zM498 185q0 -61 -40 -110q-40 -48 -90 -48q-34 0 -75 18q-42 21 -49 35q-10 18 -10 85v14q2 123 4 369q0 40 26 64q26 25 66 25q25 0 47 -10t39 -27q16 -17 25 -41q9 -23 9 -51q0 -119 -128 -119q-1 -9 -4 -29q96 -18 138 -59
q42 -42 42 -116z" />
    <glyph glyph-name="C" unicode="C" horiz-adv-x="662" 
d="M664 613l-27 38q-23 -14 -43 -25q-20 -12 -38 -19q-110 101 -201 101q-60 0 -140 -39q-86 -44 -133 -113q-50 -73 -50 -214q0 -349 350 -349q40 0 92 3q51 3 116 10v-189h42v263q0 44 -26 44q-14 0 -36 -24q-29 -33 -45 -45q-36 -23 -81 -23q-131 0 -218 98
q-87 97 -87 247q0 120 43 192q43 74 115 74q46 0 91 -30q43 -28 120 -109l103 74q38 27 53 35z" />
    <glyph glyph-name="D" unicode="D" horiz-adv-x="770" 
d="M734 315q0 179 -77 271q-76 92 -226 92q-75 0 -109 -21q-26 -15 -77 -47q-15 -8 -29 -8l-194 36q-12 -21 -12 -28q0 -6 126 -28q32 -9 40 -102q4 -43 6 -74q1 -31 1 -52v-202q0 -43 -6 -59q-8 -20 -32 -23q-18 -3 -54 -8q-44 -6 -72 -50q-21 -36 -21 -79q0 -36 18 -53
l25 17q-3 12 -3 22q0 47 49 74q41 19 93 15l280 -23q107 -10 190 92q84 100 84 238zM643 283q0 -241 -144 -241q-43 0 -79 3t-68 8q-60 10 -62 27q-4 71 -11 212q-6 96 -8 142q-3 45 -3 40q0 93 18 113q26 29 84 29q116 0 195 -95q78 -94 78 -238z" />
    <glyph glyph-name="E" unicode="E" horiz-adv-x="635" 
d="M615 437q-27 -2 -111 -7q0 50 42 139l26 49q12 21 20 33l-34 13q-17 -26 -31 -44l-21 -29q-109 99 -164 99q-26 0 -93 -20l-56 -19q-24 -9 -37 -17q-55 -32 -90 -117q-34 -85 -34 -184q0 -163 80 -256q79 -93 219 -93q73 0 206 48v-158l45 25q1 145 6 234q16 210 27 304z
M469 425q-73 -2 -292 -9h-4q-32 0 -32 35q0 39 30 101q37 76 88 76q94 0 210 -203zM559 343l-19 -255q-89 -27 -140 -27q-103 0 -184 77q-81 78 -81 177q0 19 26 25q15 3 61 3h337z" />
    <glyph glyph-name="F" unicode="F" horiz-adv-x="496" 
d="M481 643q-77 29 -127 29q-66 0 -147 -56q-55 57 -86 57q-6 0 -8 -1l-106 -46q4 -7 17 -28q22 9 39 9q26 0 42 -41q17 -42 17 -109v-57h-92q2 -11 9 -46h83q-2 -77 -9 -310q-12 -36 -79 -36v-31q18 0 43 2q24 2 56 6q63 6 91 6q49 0 91 -1q41 -1 77 -3q4 5 4 22
q-30 14 -174 21q-3 138 -3 318l183 6v-95h35v112q0 20 11 88t33 184zM426 555l-20 -139l-187 -8v144q0 50 80 50q71 0 127 -47z" />
    <glyph glyph-name="G" unicode="G" horiz-adv-x="696" 
d="M673 195q0 52 -37 112l-28 45l-9 15q0 13 38 37q-10 8 -16 12q-7 4 -10 5q-31 -21 -56 -36q-25 -16 -44 -27l-108 -45q-46 -18 -74 -28q5 -12 16 -34l144 52q27 0 66 -55q38 -54 38 -101q0 -88 -122 -88q-120 0 -193 35q-58 26 -99 108q-41 81 -41 169q0 106 48 181
q47 74 118 74t115 -44q81 -80 86 -80q2 0 45 24q27 15 55 27q28 13 58 25q-21 26 -26 30l-34 -14l-29 -10q-43 31 -75 52t-54 32q-31 16 -59 16q-38 0 -102 -17q-32 -9 -57 -18q-25 -10 -45 -21q-67 -38 -104 -115q-37 -78 -37 -180q0 -161 80 -257q81 -95 215 -95
q115 0 236 63q63 34 81 62q20 29 20 89z" />
    <glyph glyph-name="H" unicode="H" horiz-adv-x="734" 
d="M399 530q-55 0 -141 -52q-12 7 -12 25v141q0 21 3 44q4 21 4 25q0 26 -33 26h-39q-23 -1 -55 -2l-112 18q-1 -7 -6 -27q24 -6 94 -22q22 -6 31 -40q12 -49 12 -171v-442q0 -23 -22 -26q-19 -2 -55 -7v-14v-11q46 5 69 5h50h31l93 -5v14v11q-16 4 -65 13v315q0 31 10 56
q10 26 29 45q18 19 41 17q23 -1 56 -1q78 0 125 -47q11 -11 11 -10zM404 497q29 0 32 -14q4 -14 22 -33q18 -18 29 -44q10 -26 10 -56v-316q-18 -2 -72 -9v-26q93 6 97 4t33 -2q27 0 46 -1l65 -7v26q-12 2 -46 9q-23 3 -23 27v441q0 123 12 171q10 35 31 40l94 23
q-1 6 -6 26q-28 -4 -111 -17q-32 1 -56 1q-23 1 -39 1q-32 0 -32 -27q0 -4 4 -24q3 -24 3 -44v-142q0 -17 -12 -24q-86 43 -87 49q-91 -40 -91 -45q0 -2 19 3q61 16 78 10z" />
    <glyph glyph-name="I" unicode="I" horiz-adv-x="478" 
d="M466 -13v21l-106 16v592q22 5 85 18q-2 8 -9 32q-19 -3 -76 -11q2 13 6 51h-36q-1 -14 -3 -53q-25 -7 -68 -7q-85 0 -160 9q-21 2 -43 5q-21 4 -43 6q0 -12 -2 -35q42 -4 166 -15q11 -1 21 -24q9 -23 9 -52v-413q0 -47 -8 -79q-9 -33 -22 -34l-121 -12q0 -7 -3 -28
q75 11 133 15q58 5 101 6q32 1 77 -1q44 -2 102 -7zM327 24h-26v589h26v-589z" />
    <glyph glyph-name="J" unicode="J" horiz-adv-x="344" 
d="M286 643q-6 5 -22 22q-57 -48 -145 -48q-35 0 -96 47q-18 0 -18 -21q0 -9 7 -19q6 -10 18 -18q11 -7 25 -12t29 -6q71 -11 80 -25q15 -23 15 -135v-441q0 -205 -47 -205q-17 0 -49 29q-32 28 -35 28q-8 0 -18 -16q-10 -17 -10 -31q0 -32 20 -53q19 -21 48 -21
q73 0 130 88q57 89 57 200v460q0 30 1 59l4 57q4 55 6 61z" />
    <glyph glyph-name="K" unicode="K" horiz-adv-x="631" 
d="M616 0v32q-66 5 -86 36l-208 320l164 136q22 19 73 38q33 12 33 30q0 13 -10 23q-10 11 -21 11q-6 0 -13 -5l-344 -290v212q0 66 19 67q24 3 73 8v31q-2 0 -14 -1q-13 -1 -35 -3q-45 -3 -83 -3q-58 0 -156 12v-29q17 -3 68 -13q33 -6 33 -128v-369q0 -71 -13 -86
q-11 -15 -64 -15q-16 0 -26 2v-4v-28q33 0 82 5q48 5 124 5q30 0 55 1t47 3v31h-76q-15 0 -24 19q-10 20 -10 48v190l27 26l21 21l191 -295q25 -38 50 -38h123z" />
    <glyph glyph-name="L" unicode="L" horiz-adv-x="569" 
d="M553 -138v247q-36 0 -100 -37t-142 -37h-86v575h122v35h-181q-24 0 -60 5q-36 4 -88 13q-3 -12 -11 -36q24 -4 97 -15q21 -3 21 -73v-399q0 -73 -5 -97q-5 -20 -24 -20h-77v-35q23 0 53 1q30 2 69 4l60 3q20 2 24 2h290v-136h38z" />
    <glyph glyph-name="M" unicode="M" horiz-adv-x="941" 
d="M913 -12v28q-29 7 -115 26v532q0 40 10 57q15 23 63 25v34l-173 -27h-86v-33h47q9 0 16 -6q8 -7 8 -12q0 -24 -58 -147q-140 -305 -146 -305t-25 52l-80 209l-55 109q-25 52 -49 97l59 23q-3 9 -10 34q-2 0 -63 -22q-50 -18 -85 -18h-126v-34h89q36 0 36 -51
q0 -28 -9 -92q-9 -65 -27 -167q-12 -72 -38 -215q-8 -40 -30 -56q-19 -13 -61 -18v-31v0v0q1 0 41 6q22 2 40 3q17 2 32 2q77 0 126 -3v35h-90q-25 0 -20 33l73 472q66 -110 107 -206q47 -116 80 -237q5 -17 9 -35q5 -17 9 -35q8 -17 26 -17q17 0 25 21l17 48q6 16 7 18
l146 306q44 92 53 92q12 0 12 -117v-281q0 -50 -39 -50h-32v-37q2 0 56 3q27 2 44 3q16 1 24 1q23 0 50 -2q26 -2 56 -6z" />
    <glyph glyph-name="N" unicode="N" horiz-adv-x="823" 
d="M808 621v32l-237 -8v-29q21 -1 84 -7q21 -2 21 -100v-280q0 -53 -14 -53q-10 0 -57 44l-362 337q-35 33 -43 54q-7 19 -7 67h-16q-23 0 -65 -3q-25 -2 -59 -9q-37 -9 -42 -15q2 -9 5 -26q17 4 35 6q19 2 41 2q20 0 24 -4q9 -8 15 -37l26 -118v-245q0 -36 -10 -105
q-11 -79 -22 -87q-26 -18 -72 -18q-2 -6 0 -30q55 5 97 8q41 3 71 3q43 0 122 -6q1 9 3 29q-63 12 -116 12q-37 0 -37 58v367l483 -425v-46h37q2 130 10 520q1 93 21 98z" />
    <glyph glyph-name="O" unicode="O" horiz-adv-x="753" 
d="M717 332q0 178 -87 271q-87 92 -255 92q-166 0 -253 -95q-86 -96 -86 -268q0 -83 22 -148q23 -65 66 -110q43 -44 104 -68q62 -23 139 -23q163 0 257 93q93 93 93 256zM602 291q0 -256 -171 -256q-124 0 -207 101q-82 104 -82 255q0 121 52 189q51 67 141 67
q121 0 193 -97q74 -97 74 -259z" />
    <glyph glyph-name="P" unicode="P" horiz-adv-x="682" 
d="M644 438q0 110 -71 177q-69 68 -186 68q-73 0 -108 -27l-63 -46q-8 -6 -26 -6q-14 1 -45 6l-138 23v-30l95 -19q21 -5 34 -70q16 -70 16 -176v-207q0 -78 -21 -98q-19 -20 -106 -20v-27q77 3 143 9q25 2 49 3q24 2 47 2q65 0 168 -9t127 -9v31q-126 19 -305 19v121
q65 -13 125 -13q113 0 188 86q77 86 77 212zM547 394q0 -75 -34 -140q-38 -72 -90 -72q-50 0 -113 35q-53 29 -56 39q-10 30 -10 59v60v177q0 23 21 48q28 31 75 31q91 0 148 -67q59 -66 59 -170z" />
    <glyph glyph-name="Q" unicode="Q" horiz-adv-x="763" 
d="M886 -237q-7 7 -29 25l-47 -56q-9 -12 -30 -12q-12 0 -24 6q-13 6 -23 15q-9 9 -16 21q-6 13 -6 26l-6 135q-6 79 -104 138q74 72 98 126q26 55 26 148q0 366 -348 366q-159 0 -246 -90q-88 -91 -88 -249q0 -155 88 -258q88 -100 219 -100q18 0 40 2q23 1 51 3q29 2 49 4
q21 1 34 1q21 0 48 -28q28 -29 29 -48l6 -148q1 -49 44 -88q41 -38 94 -38t96 40q29 27 45 59zM622 297q0 -263 -192 -263q-122 0 -208 110q-85 113 -85 271q0 120 56 186q56 67 155 67q123 0 198 -103q76 -103 76 -268z" />
    <glyph glyph-name="R" unicode="R" horiz-adv-x="772" 
d="M757 -3v32q-17 2 -30 3q-14 1 -26 2q-29 6 -58 50l-135 211q39 23 61 39q23 16 29 23q41 44 41 135q0 87 -56 136q-57 50 -159 50q-53 0 -97 -21q-12 -5 -31 -18q-20 -12 -49 -33l-230 29q-1 -9 -6 -34l140 -27q17 -3 20 -109l2 -75v-85q0 -58 -1 -119q-2 -61 -6 -127
q-2 -22 -21 -29q-24 -11 -107 -11v-30q8 0 37 1q28 1 78 3q49 2 89 3t70 1q24 0 55 -3t70 -10v39q-27 1 -107 6q-17 1 -26 3q-10 2 -15 7t-7 14q-1 9 -1 25v236l104 -33l190 -284h182zM521 462q0 -59 -34 -96q-33 -37 -89 -37q-32 0 -76 22q-43 23 -43 41v137q0 39 26 63
q26 23 73 23q65 0 104 -41q39 -42 39 -112z" />
    <glyph glyph-name="S" unicode="S" horiz-adv-x="612" 
d="M574 273q0 37 -7 63q-7 25 -24 43t-43 30q-27 11 -67 18q20 62 37 93q16 29 61 86l-31 22l-49 -66q-7 -6 -12 -6q-12 0 -74 50q-64 51 -98 51q-89 0 -157 -74q-69 -75 -69 -168q0 -154 105 -154q23 0 137 31q113 32 136 32q28 0 49 -29q20 -29 20 -72q0 -45 -17 -102
q-17 -54 -37 -71q-19 -16 -75 -16q-83 0 -177 54l-103 59q-7 -30 -12 -54l-11 -41l-30 -86l-21 -57l30 -18l53 136q16 -9 33 -16l33 -16q43 -19 82 -19q157 0 248 79q90 78 90 218zM391 430q0 -6 -2 -11q-3 -4 -10 -8q-6 -4 -19 -8t-33 -9l-104 -25q-12 -4 -27 -4
q-66 0 -66 88q0 147 78 147q37 0 85 -51q15 -17 31 -33l31 -33q36 -39 36 -53z" />
    <glyph glyph-name="T" unicode="T" horiz-adv-x="750" 
d="M768 712q0 20 -36 36l-44 -32q14 -18 14 -28q0 -16 -15 -26t-37 -9q-166 4 -497 13q-65 2 -102 -33q-38 -34 -38 -92q0 -24 19 -42l20 9q-5 23 -5 39q0 47 173 47q83 0 99 -13q19 -13 19 -72v-351q0 -29 -4 -58q-3 -28 -10 -58l-63 -9l-45 -5l-58 -13v-35q64 11 114 16
q51 6 86 6q44 0 106 -1t144 -3v30q-34 3 -135 14q-26 3 -26 38v493q161 0 247 43q74 37 74 96z" />
    <glyph glyph-name="U" unicode="U" horiz-adv-x="664" 
d="M669 31q-62 36 -77 65q-15 31 -15 115v422q-34 -2 -135 -6v-25q22 -11 25 -15q25 -30 25 -92v-290q0 -148 -157 -148q-48 0 -95 25q-47 24 -64 58q-21 41 -21 149v200q0 31 9 138q-71 -6 -159 -6v-3v-21q14 -5 24 -10q9 -5 14 -9q24 -21 24 -50v-341q0 -92 60 -149
q59 -56 159 -56q59 0 110 32l42 35l42 35l82 -80q13 -13 38 -13q27 0 69 40z" />
    <glyph glyph-name="V" unicode="V" horiz-adv-x="602" 
d="M582 598q0 4 -6 9q-6 4 -14 8q-7 5 -16 7q-8 2 -15 2q-31 0 -31 -24v-9t1 -24q1 -22 0 -39q-1 -21 -9 -45q-38 -121 -120 -317q-13 -30 -22 -30q-10 0 -42 81l-139 345q-5 16 -21 62q-4 13 -18 13q-4 0 -9 -1l-64 -12q-48 -10 -48 -22q0 -8 25 -24q28 -21 43 -53
l219 -536q10 -20 18 -20q13 0 28 28q32 58 63 126t62 148q2 8 27 78l73 207q15 24 15 42z" />
    <glyph glyph-name="W" unicode="W" horiz-adv-x="983" 
d="M974 606q0 15 -24 15q-62 0 -62 -15q3 -61 3 -95q0 -37 -33 -160q-39 -145 -84 -242l-199 470q-5 12 -21 12q-12 0 -26 -38l-168 -455l-217 510q-7 13 -21 13h-6q-20 -7 -61 -20q-15 -2 -31 -6q-17 -3 -17 -12q0 -10 28 -32q16 -13 28 -27t19 -30l216 -467q24 -49 39 -49
q18 0 55 96l136 358l201 -420q10 -22 32 -22q12 0 30 49l86 243q59 194 79 282q18 30 18 42z" />
    <glyph glyph-name="X" unicode="X" horiz-adv-x="549" 
d="M559 56q0 13 -13 13q-3 0 -12 -1q-10 -1 -16 -1q-38 0 -59 35l-121 200q-30 50 -30 59q0 13 45 82l77 119q14 23 45 33q26 9 26 26q0 23 -42 23q-23 0 -32 -13l-146 -220l-94 183q-14 29 -38 48q-24 20 -47 20q-5 0 -37 -21l-32 -18q-11 -8 -17 -10v-19q21 -5 32 -9
q11 -3 13 -4q25 -12 37 -32l72 -129q58 -107 58 -132q0 -19 -31 -69q-63 -101 -87 -129q-31 -36 -67 -45q-47 -7 -47 -12q0 -19 19 -35q20 -16 37 -16q28 0 48 20q21 21 61 88l93 158q40 -84 91 -159q74 -105 122 -105q22 0 57 29q35 31 35 43z" />
    <glyph glyph-name="Y" unicode="Y" horiz-adv-x="502" 
d="M503 638q0 6 -13 12t-31 6h-16q-6 -1 -10 -5q-3 -3 -4 -10q-2 -7 -5 -19l-2 -21q0 -10 -1 -20q-2 -18 -9 -38q-6 -21 -18 -46q-11 -27 -25 -53l-28 -52q-31 -55 -39 -55q-16 0 -176 319q-6 6 -13 6h-5l-90 -33q-14 -5 -14 -21q0 -11 34 -14l192 -336q-1 -37 -7 -147
q-5 -89 -57 -99q-46 -11 -65 -15v-31q12 0 87 16q78 14 182 14h77v31l-96 4q-25 1 -25 94v147l129 251q48 94 48 115z" />
    <glyph glyph-name="Z" unicode="Z" horiz-adv-x="641" 
d="M636 7q0 62 -73 77q-29 6 -140 6q-65 0 -142 -2q-78 -2 -171 -6l448 518q24 29 24 32q0 20 -12 20q-173 0 -520 -2q-35 -7 -38 -36q-2 -21 -8 -65q0 -17 14 -17q7 0 16 10t20 15q20 9 56 9h366l-464 -533q-16 -20 -16 -26q0 -13 14 -13q3 0 10 1l14 2q8 0 16 1q7 1 12 1
h381q64 0 87 -4q5 -1 18 -5l40 -12q3 -21 3 -45q0 -42 -9 -78h34q20 109 20 152z" />
    <glyph glyph-name="bracketleft" unicode="[" horiz-adv-x="282" 
d="M264 -163v30q-12 -2 -31 -3t-46 -1q-16 0 -16 31v872q0 31 16 31q27 0 46 -1t31 -3v29q-74 15 -117 22q-43 8 -55 8q-23 0 -23 -126v-135v-658q0 -126 23 -126q12 0 55 8z" />
    <glyph glyph-name="backslash" unicode="\" horiz-adv-x="205" 
d="M126 351l4 46v161v50q0 19 1 23q8 45 43 45q36 0 94 -77q41 45 41 77q0 13 -28 32q-29 19 -52 19q-49 0 -92 -24q-44 -24 -63 -62q-28 -53 -33 -245l-33 -23q-4 -8 -6 -15q-3 -7 -4 -11h48v-410q0 -14 11 -14q3 0 23 26l24 30l17 20q2 117 5 352z" />
    <glyph glyph-name="bracketright" unicode="]" horiz-adv-x="282" 
d="M229 -67v793q0 126 -23 126q-12 0 -55 -8q-43 -7 -117 -22v-29q12 2 31 3t46 1q16 0 16 -31v-872q0 -31 -16 -31q-27 0 -46 1t-31 3v-30l117 -22t55 -8q23 0 23 126z" />
    <glyph glyph-name="asciicircum" unicode="^" horiz-adv-x="436" 
d="M404 256q0 4 -10 10q-7 4 -11 8l-6 6l-73 148l-39 76q-31 56 -44 56q-20 0 -67 -71q-32 -46 -43 -69q-10 -17 -29 -64q-13 -37 -23 -63l-14 -43t-6 -21v-1q0 -9 13 -12q16 -3 27 -3q20 0 22 11q1 19 2 33q0 14 -1 25q8 54 62 142q23 36 32 36q18 0 31 -44l48 -111
q14 -34 36 -60q23 -31 40 -31q13 0 32 16q21 17 21 26z" />
    <glyph glyph-name="underscore" unicode="_" horiz-adv-x="371" 
d="M370 -86q0 10 -9 18q-9 9 -18 9h-77h-230q-36 0 -36 -27t26 -27h305q22 0 28 2q11 5 11 25z" />
    <glyph glyph-name="grave" unicode="`" 
d="M211 513l-65 111h-84q-6 0 -6 -4t10 -14l98 -106h44q6 0 6 4q0 3 -3 9z" />
    <glyph glyph-name="a" unicode="a" 
d="M383 28q-43 19 -57 38t-14 35v215q0 29 -47 69q-47 41 -84 41q-22 0 -80 -41q-61 -45 -61 -69q0 -13 12 -24q11 -11 22 -11q7 0 34 12q26 14 26 22q0 12 -22 31q25 16 41 16q67 0 70 -122l-141 -86q-21 -13 -35 -40q-15 -28 -15 -55q0 -34 21 -57q21 -24 52 -24
q36 0 48 9q56 41 70 49q9 0 44 -32q3 -3 28 -11q24 -8 32 -8q16 0 26 8q10 11 30 35zM223 80q0 -14 -23 -30q-24 -14 -41 -14q-41 0 -41 44q0 36 19 59q38 50 72 50q11 0 13 -2q1 -3 1 -19v-88z" />
    <glyph glyph-name="b" unicode="b" horiz-adv-x="426" 
d="M396 213q0 112 -34 163q-34 52 -109 52q-21 0 -37 -10l-96 -56v339q0 42 -16 42q-3 0 -6 -1q-124 -22 -124 -35q0 -8 41 -49q17 -16 17 -74v-415q0 -178 168 -178q34 0 83 25q50 27 81 61q32 36 32 136zM314 177q0 -61 -25 -105q-25 -45 -58 -45q-37 0 -77 46
q-34 40 -34 59v161q0 18 25 41q29 28 66 28q44 0 74 -52q29 -53 29 -133z" />
    <glyph glyph-name="c" unicode="c" horiz-adv-x="349" 
d="M352 89q-5 6 -22 23q-55 -67 -89 -67q-28 0 -51 13t-40 35q-17 23 -26 54t-9 68q0 92 8 123q12 46 56 46q30 0 66 -45q35 -44 36 -44q7 0 28 22q23 23 23 35q0 29 -41 55q-41 25 -88 25q-41 0 -74 -18t-56 -50q-23 -33 -35 -81q-12 -47 -12 -106q0 -93 42 -143
q43 -49 120 -49q48 0 83 23q13 8 33 29q20 20 48 52z" />
    <glyph glyph-name="d" unicode="d" horiz-adv-x="443" 
d="M454 74q-3 6 -10 23q-12 -6 -51 -23q-11 -5 -14 108v519q0 36 -20 37q-2 0 -5 -1q-125 -14 -125 -25t42 -53q23 -22 23 -98v-139q-14 2 -36 3q-21 1 -48 1q-185 0 -185 -221q0 -106 39 -163t108 -57q14 0 38 14l89 54q0 -66 23 -66l77 43q55 30 55 44zM296 141
q0 -47 -16 -56l-64 -35q-7 -4 -14 -4q-37 0 -65 63q-26 64 -26 142q0 133 59 133q58 0 96 -35q30 -26 30 -48v-160z" />
    <glyph glyph-name="e" unicode="e" horiz-adv-x="347" 
d="M356 361q-4 6 -18 24l-39 -24q-43 62 -84 62t-76 -19q-8 -5 -22 -15q-15 -10 -35 -28q-26 -20 -41 -73q-13 -46 -13 -102q0 -98 41 -150t114 -52q28 0 54 16l107 71q-5 7 -18 30q-20 -12 -77 -50q-9 -6 -22 -6q-39 0 -72 39q-37 41 -37 96q0 18 3 32l150 90zM225 330
q0 -11 -17 -22l-89 -51q2 27 6 50q5 23 10 42q7 29 40 29q12 0 31 -21q19 -19 19 -27z" />
    <glyph glyph-name="f" unicode="f" horiz-adv-x="205" 
d="M309 676q0 13 -28 32q-29 19 -52 19q-49 0 -92 -24q-44 -24 -63 -62q-28 -53 -33 -245l-33 -23q-4 -8 -6 -15q-3 -7 -4 -11h48v-410q0 -14 11 -14q3 0 23 26l24 30l17 20q2 117 5 352h63l15 46h-74v161v50q0 19 1 23q8 45 43 45q36 0 94 -77q41 45 41 77z" />
    <glyph glyph-name="g" unicode="g" horiz-adv-x="427" 
d="M443 -142q0 60 -33 100q-34 40 -84 39q-60 -1 -181 -4q-23 -2 -23 29q0 16 21 33q12 8 37 23t64 36q99 53 99 191v35h82q3 14 10 56q-29 1 -116 2q-12 15 -45 29q-38 15 -74 15q-72 0 -121 -56q-48 -57 -48 -140q0 -61 22 -95t75 -59q-35 -26 -61 -63q-27 -36 -27 -51
q0 -32 50 -61q-89 -89 -89 -145q0 -53 54 -89q54 -38 132 -38q107 0 182 62q74 63 74 151zM267 227q0 -84 -65 -84q-40 0 -66 44q-25 43 -25 112q0 46 16 75q16 28 45 28q37 0 66 -53q29 -54 29 -122zM361 -172q0 -59 -43 -100q-40 -41 -102 -41q-36 0 -63 9q-28 10 -48 26
q-18 17 -28 39t-10 46q0 52 67 103q65 15 99 15q75 0 102 -20q26 -21 26 -77z" />
    <glyph glyph-name="h" unicode="h" horiz-adv-x="464" 
d="M471 76q-4 5 -14 22l-34 -24q-15 -11 -32 -21q2 20 3 69q1 50 1 133q0 75 -31 111q-30 32 -109 60q-27 -10 -79 -43q-39 -25 -42 -22v330q0 25 -3 32q-2 5 -10 5q-3 0 -6 -1q-133 -18 -133 -31q0 -7 41 -48q25 -25 25 -75v-603l86 47v300l70 44q106 0 108 -144
q1 -58 1 -174q0 -54 15 -54t78 36q23 17 39 30z" />
    <glyph glyph-name="i" unicode="i" horiz-adv-x="195" 
d="M193 611q0 13 -18 13h-48q-9 0 -15 -15q-6 -14 -11 -30q-22 -55 -22 -66q0 -13 22 -13q4 0 20 17l48 53q24 27 24 41zM201 81q-10 20 -17 20l-45 -31v323q0 38 -11 38q-2 0 -8 -2q-124 -29 -124 -41q0 -7 41 -48q16 -16 16 -75v-254q0 -14 2 -17t14 -3q15 0 44 20z" />
    <glyph glyph-name="j" unicode="j" horiz-adv-x="190" 
d="M213 611q0 13 -17 13h-45q-10 0 -16 -15q-7 -14 -13 -30q-23 -55 -23 -66q0 -13 23 -13q4 0 19 17l48 53q24 27 24 41zM150 -26v411q0 45 -18 45q-4 0 -6 -1q-125 -30 -125 -41q0 -6 42 -48q16 -16 16 -75v-422q0 -30 -2 -56q-3 -26 -9 -45q-5 -20 -13 -30
q-7 -11 -17 -11q-33 0 -78 54q-24 -39 -24 -59q0 -14 23 -28t45 -14q56 0 95 42q71 77 71 278z" />
    <glyph glyph-name="k" unicode="k" horiz-adv-x="445" 
d="M449 66q-5 5 -19 23l-40 -35q-8 -6 -18 0q-5 0 -19 14q-8 8 -15 19q-6 10 -11 22q-14 33 -24 59q-11 27 -20 46q-4 10 -19 26q-13 14 -13 16q33 35 59 59q27 24 48 38q8 6 30 16q18 8 18 9q0 6 -5 13q-4 7 -9 13q-5 7 -12 11q-6 5 -10 5q-2 0 -3 -1l-189 -185
q-11 -8 -21 -17t-20 -17v491q0 37 -11 37q-5 0 -8 -1q-124 -13 -124 -26q0 -7 41 -48q16 -16 16 -74v-582q0 -15 2 -19q2 -3 14 -3q16 0 70 40v158q37 27 50 31q16 -20 29 -43q13 -24 25 -50q8 -21 17 -41l18 -41q20 -41 70 -41q13 0 28 12z" />
    <glyph glyph-name="l" unicode="l" horiz-adv-x="195" 
d="M202 81q-9 20 -17 20l-45 -31v642q0 38 -11 38q-2 0 -8 -2q-124 -29 -124 -41q0 -8 41 -49q16 -16 16 -74v-573q0 -14 2 -17t14 -3q15 0 44 20z" />
    <glyph glyph-name="m" unicode="m" horiz-adv-x="626" 
d="M634 67l-9 22l-26 -16q-12 -7 -21 -13q-7 -2 -4 103l2 38t3 40q1 17 1 26q1 9 1 12q0 85 -71 133q-15 11 -24 6l-133 -60q-20 17 -83 65l-140 -71q-34 41 -69 54q-44 -20 -66 -54q55 -54 55 -103v-279l82 38v301l47 28q20 12 39 12q11 0 22 -11q10 -10 18 -29
q8 -18 12 -43q4 -24 3 -52l-9 -244q21 10 85 38q2 77 7 307l36 23q15 11 35 11q35 0 53 -44q19 -44 15 -124q-4 -59 -11 -178q-2 -25 23 -25q7 0 66 41q61 42 61 48z" />
    <glyph glyph-name="n" unicode="n" horiz-adv-x="449" 
d="M463 86q-4 6 -14 23l-43 -32q-20 -14 -36 -24q7 68 10 117q4 50 4 85q0 75 -27 110q-26 35 -103 61q-30 -12 -81 -48q-42 -30 -44 -26q-28 31 -60 54l-71 -41q38 -39 48 -68q10 -25 10 -80v-247l80 47v300l67 44q45 0 75 -57q29 -57 23 -137l-9 -124l-6 -29t-2 -12
q0 -4 7 -9q8 -4 15 -4q16 0 78 36q27 19 46 34z" />
    <glyph glyph-name="o" unicode="o" horiz-adv-x="397" 
d="M371 241q0 197 -137 197q-88 0 -147 -70q-59 -69 -59 -171q0 -93 42 -153q43 -59 109 -59q34 0 82 28q65 40 87 90q23 47 23 138zM294 159q0 -119 -51 -119q-31 0 -56 15t-44 40q-18 27 -28 64t-10 82q0 143 64 143q54 0 89 -66q36 -65 36 -159z" />
    <glyph glyph-name="p" unicode="p" horiz-adv-x="470" 
d="M446 217q0 96 -36 153q-37 56 -102 56q-40 0 -69 -20l-72 -50v68q-53 -17 -87 -23q-27 -3 -76 -3v-3v-15q41 -23 55 -45q9 -12 14 -44q1 -6 1 -13t1 -14v-318q0 -65 -3 -135t-9 -150q-11 -5 -19 -9t-13 -6l9 -24q23 6 94 22q36 2 146 9v29l-102 -4q-26 -2 -26 41l6 127
q2 38 9 151q19 -3 61 -3q116 0 167 52q51 51 51 171zM358 159q0 -125 -65 -125q-29 0 -88 27q-24 12 -31 23q-12 16 -12 55v117q0 52 26 81q23 24 60 24q48 0 79 -59q31 -57 31 -143z" />
    <glyph glyph-name="q" unicode="q" horiz-adv-x="426" 
d="M450 -301l-11 22q-15 -5 -61 -22v701q-2 2 -8 6l-54 -24q-74 38 -96 38q-77 0 -134 -73q-55 -73 -55 -172q0 -43 9 -78q10 -36 28 -60q17 -25 41 -39q24 -13 54 -13q9 0 30 9l107 48v-357q0 -41 22 -41q2 0 8 2zM304 187q0 -90 -16 -112q-6 -9 -27 -19t-41 -10
q-53 0 -84 46q-32 45 -32 122q0 75 25 120q25 46 64 46q13 0 29 -6t30 -18q14 -10 27 -25t21 -31q4 -16 4 -21v-92z" />
    <glyph glyph-name="r" unicode="r" horiz-adv-x="289" 
d="M309 383q0 12 -23 28q-30 18 -32 18q-11 0 -34 -17l-69 -57q-7 66 -28 66q-13 0 -64 -13q-57 -18 -57 -26q0 -1 1 -2q43 -43 51 -58q11 -17 11 -55v-234q0 -35 -17 -51q4 -4 8 -7t9 -6l75 58q3 72 13 288q53 46 61 46q10 0 59 -46q36 38 36 68z" />
    <glyph glyph-name="s" unicode="s" horiz-adv-x="340" 
d="M311 150q0 81 -75 105q-76 18 -108 25q-9 2 -16 16q-8 14 -8 26t6 23q5 10 13 19t19 14t22 5q23 0 37 -23l8 -18l8 -18q25 0 44 12q19 13 19 30q0 23 -19 39t-47 16l-58 -6q-127 -14 -127 -129q0 -74 56 -84l85 -18q66 -13 66 -82q0 -27 -18 -47q-17 -20 -40 -20
q-14 0 -35 11q-11 7 -20 15t-14 18q-8 16 -13 28t-7 20q-10 0 -36 -17q-13 -10 -16 -13q-6 -8 -6 -30q0 -33 32 -58q35 -23 77 -23q68 0 119 50q52 50 52 114z" />
    <glyph glyph-name="t" unicode="t" horiz-adv-x="303" 
d="M308 31q-3 5 -12 19q-47 -17 -73 -17q-39 0 -62 38q-24 39 -24 106q0 75 9 173h133q4 11 17 43q4 13 -9 13h-140q1 74 -4 74q-18 0 -68 -47q-74 -52 -75 -53q63 -37 63 -77l-12 -185q-5 -58 36 -98q37 -37 91 -37q30 0 79 20q40 17 51 28z" />
    <glyph glyph-name="u" unicode="u" horiz-adv-x="416" 
d="M417 35q-38 28 -45 42q-10 21 -8 74q6 246 6 251q0 13 -9 15q-1 1 -17 1l-52 -6q-59 -9 -59 -21q0 -8 13 -20l42 -43q2 -28 3 -46t1 -26v-27q0 -83 -24 -131q-23 -49 -64 -49q-85 0 -85 163v27l8 116q3 41 3 49q0 11 -3 12q-2 2 -14 2l-88 -17q-27 -5 -27 -15
q0 -8 10 -18q10 -11 31 -31v-220q0 -51 39 -92q41 -39 91 -39q32 0 113 63q21 -27 49 -44q7 -3 13 -6t13 -5z" />
    <glyph glyph-name="v" unicode="v" horiz-adv-x="395" 
d="M383 401q0 11 -15 11q-51 0 -51 -18q0 -8 7 -40q6 -32 6 -51q0 -33 -20 -88q-9 -28 -20 -52t-23 -41q-10 -18 -19 -27q-8 -10 -12 -10q-10 0 -22 20q-13 20 -20 41l-63 196q-5 15 -14 29q-8 13 -20 22q-10 10 -21 17q-11 6 -21 6q-12 0 -32 -17q-21 -17 -21 -25
q0 -4 12 -12q12 -7 16 -12q17 -18 25 -42l45 -143q17 -54 56 -124q30 -55 44 -55q19 0 67 69q65 99 88 207q9 39 25 118q3 9 3 21z" />
    <glyph glyph-name="w" unicode="w" horiz-adv-x="637" 
d="M628 386q0 10 -16 10q-50 0 -50 -17q0 -4 3 -12q2 -9 5 -19q4 -9 7 -20t3 -20q0 -47 -23 -111q-17 -53 -36 -86q-19 -34 -28 -34q-24 0 -42 46l-92 230q-8 22 -25 36q-18 13 -30 13t-30 -16q-17 -17 -17 -27q0 -3 10 -10q11 -7 15 -13l43 -83l-33 -74q-14 -34 -29 -62
q-21 -44 -34 -44q-18 0 -38 56l-67 186q-6 16 -15 30t-19 26q-10 11 -20 18q-11 6 -20 6q-12 0 -32 -16q-20 -18 -20 -26q0 -4 11 -11t16 -12q15 -18 25 -42l80 -211q5 -14 14 -28q9 -15 21 -32q24 -31 35 -31q32 0 78 91l34 66l29 54l42 -106q20 -50 44 -86q15 -22 39 -22
q9 0 29 25q21 29 40 61q18 31 32 62q15 31 25 59t15 52q21 96 21 144z" />
    <glyph glyph-name="x" unicode="x" horiz-adv-x="423" 
d="M430 80q-5 4 -21 18q-8 -7 -14 -13q-7 -6 -12 -11l-24 -21q-16 0 -35 32l-82 133q7 18 30 70q26 58 37 58q5 0 41 -24q40 34 44 56q0 11 -13 24q-13 14 -34 14q-24 0 -52 -35q-27 -35 -74 -124l-53 86q-10 16 -38 40q-27 21 -40 21q-11 0 -32 -17q-18 -17 -18 -31
q0 -3 34 -22q21 -22 28 -33l85 -138q-61 -107 -77 -107q-18 0 -43 12t-27 12q-7 0 -20 -21q-12 -20 -12 -29q0 -11 24 -29q22 -18 48 -18q36 0 58 34l67 105l56 -92q23 -37 74 -37q8 0 19 8l52 47q24 23 24 32z" />
    <glyph glyph-name="y" unicode="y" horiz-adv-x="398" 
d="M380 401q0 8 -11 14q-11 7 -25 7q-32 0 -32 -12q0 -1 2 -7t4 -13q3 -7 5 -15t2 -15q0 -4 -1 -7q0 -3 -1 -7q-18 -82 -31 -125q-14 -38 -25 -65q-10 -27 -17 -44q-8 18 -46 119q-17 43 -26 68q-10 25 -15 33q-52 89 -106 92q-19 -2 -40 -17q-20 -18 -20 -29l15 -9l45 -29
q21 -12 36 -48l66 -151q38 -87 51 -144l-19 -46q-7 -19 -12 -30q-112 -227 -112 -235q0 -10 32 -33q33 -24 41 -24q14 0 59 58l-56 39q-6 4 -6 19q0 10 29 69l32 66q13 27 18 41q88 211 142 397q22 75 22 83z" />
    <glyph glyph-name="z" unicode="z" horiz-adv-x="412" 
d="M414 3q0 32 -32 44q-39 15 -149 15h-127l126 160q126 150 151 171l-23 24q-39 -53 -67 -53q-17 0 -100 22l-84 19q-35 8 -56 12l-53 -83q6 -2 24 -9q6 5 26 20q51 -11 202 -46l-234 -293v-16q109 6 168 6q100 0 192 -19v-37h20q16 28 16 63z" />
    <glyph glyph-name="braceleft" unicode="{" horiz-adv-x="286" 
d="M254 -231q-41 14 -57 38t-16 73v309q0 110 -88 122q88 18 88 122v300q0 96 73 118h-17q-61 0 -92 -20q-46 -29 -46 -106v-312q0 -47 -17 -70q-16 -24 -59 -32q76 -24 76 -101v-331q0 -56 38 -85q35 -26 92 -26h13t12 1z" />
    <glyph glyph-name="bar" unicode="|" horiz-adv-x="276" 
d="M189 0v819h-102v-103v-716h26h76z" />
    <glyph glyph-name="braceright" unicode="}" horiz-adv-x="286" 
d="M256 311q-43 8 -60 32q-17 23 -17 70v312q0 77 -46 106q-31 20 -91 20h-17q72 -22 72 -118v-300q0 -104 88 -122q-88 -12 -88 -122v-309q0 -49 -16 -73q-15 -24 -56 -38q6 -1 12 -1h12q57 0 92 26q38 29 38 85v331q0 77 77 101z" />
    <glyph glyph-name="asciitilde" unicode="~" horiz-adv-x="489" 
d="M456 261q-7 0 -30 -12q-24 -12 -38 -12q-28 0 -75 15q-45 16 -108 16q-58 0 -127 -48q-53 -37 -53 -63q0 -14 4 -14q-2 0 26 17q30 17 81 17q18 0 71 -13q55 -12 90 -12q40 0 84 25l55 37q25 15 25 37q0 10 -5 10z" />
    <glyph glyph-name="exclamdown" unicode="&#xa1;" horiz-adv-x="195" 
d="M56 -46l99 35l-20 586l-69 -28q-9 -307 -10 -593zM38 679q29 -52 56 -74l66 63q-30 56 -52 70q-29 -9 -70 -59z" />
    <glyph glyph-name="cent" unicode="&#xa2;" horiz-adv-x="359" 
d="M336 61q-5 8 -21 30q-43 -71 -82 -71q-54 0 -89 48t-35 117q0 83 18 132q19 50 49 50q44 0 102 -96q46 37 46 69q0 19 -34 43q-32 23 -63 28v25h-42v-25q-80 -12 -120 -88q-38 -72 -38 -193q0 -111 79 -150q32 -17 79 -19v-51q11 2 42 9v50l34 21t24 16q20 17 51 55z" />
    <glyph glyph-name="sterling" unicode="&#xa3;" horiz-adv-x="658" 
d="M623 112q0 49 -34 71t-109 24q0 -14 -1 -30q-2 -15 -5 -29q-2 -13 -3 -23q-2 -10 -2 -13q5 -5 14 -15q10 0 30 19q19 19 44 19q27 0 27 -30t-71 -59q-63 -26 -116 -26q-40 0 -126 33q13 66 13 101t-13 105q57 3 70 9q4 1 27 24q8 32 13 57l10 43h-19q-25 -36 -43 -43
q-21 -10 -67 -4q-6 13 -6 36q0 88 44 158q44 71 97 71q56 0 92 -70q7 -3 21 -10q4 11 9 23q5 13 13 30q13 25 13 30q0 7 -9 13q-9 7 -23 12q-13 5 -31 8t-37 3q-113 0 -201 -76q-86 -75 -86 -184v-17q1 -10 2 -18q-24 -11 -42 -21q-19 -9 -32 -18q-21 -56 -28 -88
q5 -4 16 -14q31 50 67 50q5 0 13 -2t9 -2q7 -27 12 -49t7 -38q6 -77 6 -111q-93 -2 -133 -15q-41 -14 -41 -46q0 -23 22 -39q21 -16 52 -16q38 0 91 31q53 32 61 32q12 0 83 -33q68 -33 116 -33q78 0 130 49q54 47 54 121zM182 27q0 -8 -16 -24t-30 -16q-30 0 -30 13
q0 10 12 20q11 10 23 10q41 0 41 -3z" />
    <glyph glyph-name="currency" unicode="&#xa4;" horiz-adv-x="614" 
d="M583 110l-99 100q44 53 44 132t-44 132l99 98l-43 45l-101 -100q-50 44 -132 44q-79 0 -132 -44l-98 100l-45 -45l100 -98q-44 -53 -44 -132t44 -132l-100 -100l45 -43l98 98q53 -44 132 -44t132 44l101 -98zM475 342q0 -70 -49 -120t-119 -50q-68 0 -118 50
q-48 51 -48 120q0 66 48 117q50 51 118 51q70 0 119 -50q49 -51 49 -118z" />
    <glyph glyph-name="yen" unicode="&#xa5;" horiz-adv-x="409" 
d="M511 545q-21 36 -33 59q-13 23 -18 34q-17 -7 -29 -13q-13 -5 -23 -11q-38 -17 -50 -32l-34 -56q-15 -24 -24 -42l-46 -78t-16 -27l-80 93l-77 96q-10 14 -31 40q-23 28 -33 28h-1q-16 -7 -42 -22l-47 -26l-18 -9q-21 -12 -21 -24v-1q15 6 28 12l24 12q7 4 11 4q3 0 8 -7
l26 -25q11 -12 19 -25q53 -72 169 -206v-15h-106l-50 -48q3 -2 13 -6q4 3 15 13h128v-54h-106l-50 -48q3 -2 13 -6q4 3 15 13h128v-186q36 12 81 42v144h106q11 11 43 46q-2 1 -9 5q-3 -2 -11 -10h-129v54h106l43 46q-2 2 -9 6q-3 -2 -11 -11h-129v64l73 126q29 49 46 71
q8 12 14 12q3 0 5 -4q28 -45 40 -70q42 14 79 42z" />
    <glyph glyph-name="brokenbar" unicode="&#xa6;" horiz-adv-x="141" 
d="M123 336v347h-100v-87v-260h100zM123 -168v325h-100v-82v-243h100z" />
    <glyph glyph-name="section" unicode="&#xa7;" horiz-adv-x="421" 
d="M384 212q0 94 -67 166q-13 14 -43 38q-30 23 -78 56q-67 45 -67 79q0 29 21 46t51 17h1q32 0 53 -27l13 -26q6 -13 14 -26q14 -27 36 -27q47 0 47 40q0 41 -52 65q-43 21 -87 21q-73 0 -114 -40q-41 -39 -41 -113q0 -20 19 -52q-52 -80 -52 -136q0 -97 63 -169
q12 -13 41 -36l77 -58q64 -45 64 -84q0 -29 -24 -49q-23 -20 -52 -20q-48 0 -67 34l-10 32l-10 30q-15 33 -50 33q-18 0 -27 -15q-9 -16 -9 -34q0 -51 57 -79q46 -20 103 -20q61 0 109 32q52 37 52 97q0 21 -17 70q46 74 46 155zM353 151q0 -35 -27 -76q-30 35 -101 87
q-77 58 -101 84q-46 47 -46 98q0 25 22 71l77 -59l76 -58q100 -82 100 -147z" />
    <glyph glyph-name="dieresis" unicode="&#xa8;" 
d="M223 611q0 13 -17 13h-48q-10 0 -15 -15q-6 -14 -11 -30q-22 -55 -22 -66q0 -13 22 -13q4 0 20 17l48 53q23 27 23 41zM331 611q0 13 -18 13h-48q-9 0 -15 -15q-5 -14 -10 -30q-23 -55 -23 -66q0 -13 23 -13q4 0 19 17l48 53q24 27 24 41z" />
    <glyph glyph-name="copyright" unicode="&#xa9;" horiz-adv-x="753" 
d="M545 28q-69 -38 -143 -38q-163 0 -255 89q-91 89 -91 259q0 175 85 269q77 84 204 84q176 0 259 -83q94 -94 94 -312q0 -155 -113 -242v84q0 37 -24 37q-9 0 -26 -17q-22 -25 -34 -34q-27 -18 -61 -18q-97 0 -159 72q-63 72 -63 181q0 87 31 141q31 53 83 53q34 0 65 -23
q35 -23 90 -81q100 71 123 86l-25 34q-35 -23 -61 -32q-82 73 -150 73q-46 0 -106 -29q-65 -34 -102 -87q-36 -54 -36 -161q0 -264 264 -264q33 0 70 3q38 3 81 8v-52zM585 1q166 96 166 331q0 195 -96 298q-96 102 -280 102q-182 0 -279 -107q-94 -104 -94 -293
q0 -186 96 -285q97 -99 268 -99q102 0 179 34v-69h40v88z" />
    <glyph glyph-name="guillemotleft" unicode="&#xab;" horiz-adv-x="359" 
d="M327 100l-66 163l66 150h-26l-121 -134q-13 -14 -13 -22t13 -21l121 -135q6 0 26 -1zM189 100l-64 163l64 150h-24l-121 -134q-13 -14 -13 -22t13 -21l121 -135q6 0 24 -1z" />
    <glyph glyph-name="logicalnot" unicode="&#xac;" horiz-adv-x="459" 
d="M433 -140q0 14 -16 30q-14 14 -21 22t-9 12l-40 74l-28 51l-273 550q-6 12 -18 12q-24 0 -24 -25q0 -2 2 -8l351 -743q11 -6 27 -6q49 0 49 31z" />
    <glyph glyph-name="registered" unicode="&#xae;" horiz-adv-x="753" 
d="M622 106v31q-26 5 -39 5q-19 4 -40 36l-76 149q53 33 64 46q30 35 30 98q0 66 -42 103q-42 38 -119 38q-40 0 -71 -15q-8 -4 -23 -14l-35 -24q-40 7 -119 22q-2 -8 -7 -32q14 -6 56 -22q8 -2 11 -73q1 -26 2 -55v-62q0 -57 -6 -178q-2 -27 -42 -27v-32q14 0 62 3
q47 3 91 3q32 0 95 -11v40q-21 1 -82 3q-21 1 -26 7q-6 6 -6 25v167q17 -5 70 -22l118 -207q34 -1 134 -2zM467 450q0 -41 -23 -67t-62 -26q-22 0 -53 15q-30 14 -30 26v101q0 58 69 58q46 0 72 -29q27 -29 27 -78zM751 332q0 195 -96 298q-96 102 -280 102
q-182 0 -279 -107q-94 -104 -94 -293q0 -186 96 -285q97 -99 268 -99q180 0 282 102q103 103 103 282zM698 296q0 -142 -100 -230q-87 -76 -196 -76q-163 0 -255 89q-91 89 -91 259q0 175 85 269q77 84 204 84q176 0 259 -83q94 -94 94 -312z" />
    <glyph glyph-name="degree" unicode="&#xb0;" horiz-adv-x="279" 
d="M248 480q0 127 -86 127q-50 0 -88 -43q-38 -42 -38 -98q0 -62 26 -95q27 -34 73 -34q113 0 113 143zM198 436q0 -69 -38 -69q-29 0 -51 36q-23 38 -23 75q0 36 13 64q14 30 31 30q31 0 49 -37q19 -37 19 -99z" />
    <glyph glyph-name="plusminus" unicode="&#xb1;" horiz-adv-x="1483" 
d="M1460 -39v858h-1437v-215v-643h252h1185zM1435 575q0 -29 -23 -51q-22 -21 -52 -21h-150q-35 0 -35 -46v-310q0 -30 19 -43v-57q-74 16 -74 88v330q0 98 118 98q16 0 49 -3q18 -1 30 -1q12 -1 20 -1q41 0 41 22q0 19 -42 19h-20q-12 -1 -29 -2q-16 -1 -28 -2h-20
q-119 0 -119 90v134h59v-134q0 -36 38 -36h151q28 0 47 -21q20 -22 20 -53zM1038 139q0 -40 -24 -65t-64 -25h-108h-180q-31 0 -52 21q-20 20 -20 51q0 32 18 53q19 22 48 22h286v-55h-276q-21 0 -21 -18q0 -22 23 -22h256q62 0 62 46v78q0 46 -46 46h-256q-43 0 -69 26
q-25 26 -25 69v91q0 46 27 75t73 29h252q78 0 91 -78h-51q-20 22 -44 22h-250q-42 0 -42 -44v-97q0 -38 42 -38h252q46 0 72 -24q26 -23 26 -66v-97zM519 819q0 -175 -1 -700q0 -31 -22 -53q-22 -23 -53 -23q-32 0 -53 23q-20 22 -20 56q0 69 -1 112q0 44 -1 61q-2 9 -89 95
l-98 95q-14 15 -27 15q-11 0 -18 -6q-8 -27 -8 -33v-318q0 -44 36 -44h83q13 6 25 22h55q-15 -74 -79 -74h-84q-90 0 -90 98v119v219q0 32 26 53q24 17 58 17q33 0 53 -19l183 -182q32 -31 32 -77v-154q0 -22 19 -22q7 0 13 8t6 14q-1 233 -2 698h57z" />
    <glyph glyph-name="twosuperior" unicode="&#xb2;" horiz-adv-x="510" 
d="M309 676q0 13 -28 32q-29 19 -52 19q-49 0 -92 -24q-44 -24 -63 -62q-28 -53 -33 -245l-33 -23q-4 -8 -6 -15q-3 -7 -4 -11h48v-410q0 -14 11 -14q3 0 23 26l24 30l17 20q2 117 5 352l4 46v161v50q0 19 1 23q8 45 43 45q36 0 94 -77q41 45 41 77zM480 148q0 82 -76 106
q-75 18 -107 25q-9 2 -16 16q-8 14 -8 26t6 23q5 10 13 18q8 10 19 15t22 5q23 0 37 -23l8 -18l8 -18q25 0 44 12q19 13 19 30q0 23 -19 39t-47 16l-58 -6q-127 -14 -127 -129q0 -74 56 -84l85 -18q65 -13 65 -82q0 -27 -17 -47t-40 -20q-14 0 -35 11q-11 7 -20 15t-14 18
q-8 16 -13 28t-7 20q-10 0 -36 -17q-13 -10 -16 -13q-6 -8 -6 -30q0 -33 32 -58q35 -23 77 -23q68 0 119 50q52 50 52 113z" />
    <glyph glyph-name="threesuperior" unicode="&#xb3;" horiz-adv-x="205" 
d="M309 676q0 13 -28 32q-29 19 -52 19q-49 0 -92 -24q-44 -24 -63 -62q-28 -53 -33 -245l-33 -23q-4 -8 -6 -15q-3 -7 -4 -11h48v-410q0 -14 11 -14q3 0 23 26l24 30l17 20q2 117 5 352l4 46v161v50q0 19 1 23q8 45 43 45q36 0 94 -77q41 45 41 77z" />
    <glyph glyph-name="acute" unicode="&#xb4;" 
d="M317 620q0 4 -6 4h-84l-64 -111q-3 -6 -3 -9q0 -4 6 -4h44l98 106q9 10 9 14z" />
    <glyph glyph-name="paragraph" unicode="&#xb6;" horiz-adv-x="554" 
d="M535 638v30h-353q-71 0 -113 -32q-50 -36 -54 -104v-16q0 -71 48 -115q51 -44 136 -44h119v-424h56v705h57v-705h56v705h48zM318 389h-30q-62 0 -87 34q-24 29 -25 92v7q0 49 29 81q31 35 83 35h30v-249z" />
    <glyph glyph-name="cedilla" unicode="&#xb8;" horiz-adv-x="349" 
d="M184 -40q5 10 19 40h-6h-20l-34 -69h25q22 0 22 -15q0 -31 -62 -31q-6 0 -19 3q-4 -6 -10 -20q20 -6 49 -6q98 0 98 56q0 40 -62 42z" />
    <glyph glyph-name="guillemotright" unicode="&#xbb;" horiz-adv-x="359" 
d="M325 257q0 8 -14 22l-122 134h-24l66 -150l-66 -163q6 1 24 1l122 135q14 13 14 21zM189 257q0 5 -14 22l-122 134h-23l65 -150l-65 -163q6 1 23 1l122 135q14 16 14 21z" />
    <glyph glyph-name="onequarter" unicode="&#xbc;" horiz-adv-x="757" 
d="M764 76q-4 5 -14 22l-34 -24l-32 -21q2 20 3 69q1 50 1 133q0 75 -32 111q-29 32 -108 60q-27 -10 -79 -43q-39 -25 -42 -22v330q0 25 -3 32q-2 5 -10 5q-3 0 -6 -1q-135 -18 -135 -31q0 -6 42 -48q26 -25 26 -75v-473q-3 3 -11 12q-55 -67 -89 -67q-28 0 -51 13t-40 35
q-17 23 -26 54t-9 68q0 92 8 123q12 46 56 46q30 0 66 -45q35 -44 36 -44q7 0 28 22q23 23 23 35q0 29 -41 55q-41 25 -88 25q-41 0 -74 -18t-56 -50q-23 -33 -35 -81q-12 -47 -12 -106q0 -93 42 -143q43 -49 120 -49q46 0 79 20q14 8 32 27q18 18 42 45v-107l86 47v300
l70 44q106 0 108 -144q1 -58 1 -174q0 -54 15 -54t77 36q24 17 40 30z" />
    <glyph glyph-name="onehalf" unicode="&#xbd;" horiz-adv-x="731" 
d="M737 65l-18 23l-40 -35q-8 -6 -19 0q-5 0 -18 14q-8 8 -15 19q-6 10 -12 22l-24 59q-10 27 -20 46q-4 10 -18 26q-13 14 -13 16q32 35 59 59t48 38q7 6 30 16q17 8 17 9q0 6 -4 13t-9 13q-5 7 -12 11q-6 5 -11 5q-2 0 -3 -1l-188 -185q-11 -8 -21 -17t-20 -17v491
q0 37 -11 37q-5 0 -8 -1q-125 -14 -125 -26q0 -6 42 -48q16 -16 16 -74v-477q-3 3 -10 11q-55 -67 -89 -67q-28 0 -51 13t-40 35q-17 23 -26 54t-9 68q0 92 8 123q12 46 56 46q30 0 66 -45q35 -44 36 -44q7 0 28 22q23 23 23 35q0 29 -41 55q-41 25 -88 25q-41 0 -74 -18
t-56 -50q-23 -33 -35 -81q-12 -47 -12 -106q0 -93 42 -143q43 -49 120 -49q46 0 79 20q26 18 73 71v-80q0 -15 2 -19q2 -3 13 -3q17 0 71 40v158q37 27 50 31q16 -20 29 -43q13 -24 24 -50l18 -41l18 -41q20 -41 70 -41q13 0 28 12z" />
    <glyph glyph-name="threequarters" unicode="&#xbe;" horiz-adv-x="927" 
d="M126 351l4 46v161v50q0 19 1 23q8 45 43 45q36 0 94 -77q41 45 41 77q0 13 -28 32q-29 19 -52 19q-49 0 -92 -24q-44 -24 -63 -62q-28 -53 -33 -245l-33 -23q-4 -8 -6 -15q-3 -7 -4 -11h48v-410q0 -14 11 -14q3 0 23 26l24 30l17 20q2 117 5 352zM933 78q-4 5 -14 22
l-34 -24l-32 -21q2 20 3 69q1 50 1 133q0 75 -32 111q-29 32 -108 60q-27 -10 -79 -43q-39 -25 -42 -21v329q0 25 -3 32q-2 5 -10 5q-3 0 -6 -1q-135 -18 -135 -31q0 -6 42 -48q26 -25 26 -75v-473q-3 3 -11 12q-55 -67 -89 -67q-28 0 -51 13t-41 35q-16 23 -25 54t-9 68
q0 92 8 123q12 46 56 46q30 0 66 -45q35 -44 36 -44q7 0 28 22q23 23 23 35q0 29 -41 55q-41 25 -88 25q-41 0 -74 -18t-56 -50q-23 -33 -35 -81q-12 -47 -12 -106q0 -93 42 -143q43 -49 120 -49q46 0 79 20q14 8 32 27q18 18 42 45v-107l86 47v300l70 45q106 0 108 -145
q0 -58 1 -174q0 -54 15 -54t77 36q24 17 40 30z" />
    <glyph glyph-name="questiondown" unicode="&#xbf;" horiz-adv-x="566" 
d="M29 151q0 -80 49 -139q49 -58 116 -58q89 0 174 64q71 54 122 138q47 74 47 122q0 94 -43 145l-73 -35q5 -11 11 -23q5 -13 10 -24q15 -38 15 -79q0 -111 -63 -183q-61 -73 -156 -73q-56 0 -88 39q-33 38 -33 102q0 102 66 224q35 64 79 114q44 51 97 89q-18 7 -40 7
q-23 -17 -39 -30q-16 -12 -24 -21l-103 -103q-52 -51 -88 -132q-36 -83 -36 -144zM255 678q29 -52 56 -74l66 63q-30 56 -52 70q-29 -9 -70 -59z" />
    <glyph glyph-name="Agrave" unicode="&#xc0;" horiz-adv-x="713" 
d="M711 0v27q-19 5 -33 7q-13 3 -24 4q-15 2 -19 28l-42 237q-10 57 -22 114l-23 112q-14 67 -14 93q0 20 10 21q22 5 66 13v31q-41 0 -81 -3q-41 -3 -84 -8q-46 -6 -111 -6q-51 0 -122 6t-163 17v-34q31 -18 66 -19q37 -2 111 -5q13 -2 13 -19q0 -15 -14 -46
q-19 -48 -19 -51l-67 -226l-52 -177q-14 -45 -15 -49q-11 -21 -42 -32q-8 -2 -13 -4t-7 -3v-28q24 0 60 3q34 3 45 3q60 0 82 3t20 3v30q-15 0 -60 2q-19 1 -19 38q0 39 27 139q15 57 40 69q23 13 125 19q8 1 26 3q18 1 45 5q29 5 43 6l14 2q26 0 31 -50l18 -199
q2 -21 -12 -26q-21 -6 -35 -11l-23 -6v-27q86 6 138 6q35 0 136 -12zM469 404q0 -19 -24 -21q-59 -3 -179 -8h-9q-42 0 -42 17q0 25 22 86l54 156q30 0 120 1l41 -151q17 -64 17 -80zM360 731l-64 111h-84q-6 0 -6 -4q0 -3 9 -14l98 -106h44q6 0 6 4q1 3 -3 9z" />
    <glyph glyph-name="Aacute" unicode="&#xc1;" horiz-adv-x="713" 
d="M711 0v27q-19 5 -33 7q-13 3 -24 4q-15 2 -19 28l-42 237q-10 57 -22 114l-23 112q-14 67 -14 93q0 20 10 21q22 5 66 13v31q-41 0 -81 -3q-41 -3 -84 -8q-46 -6 -111 -6q-51 0 -122 6t-163 17v-34q31 -18 66 -19q37 -2 111 -5q13 -2 13 -19q0 -15 -14 -46
q-19 -48 -19 -51l-67 -226l-52 -177q-14 -45 -15 -49q-11 -21 -42 -32q-8 -2 -13 -4t-7 -3v-28q24 0 60 3q34 3 45 3q60 0 82 3t20 3v30q-15 0 -60 2q-19 1 -19 38q0 39 27 139q15 57 40 69q23 13 125 19q8 1 26 3q18 1 45 5q29 5 43 6l14 2q26 0 31 -50l18 -199
q2 -21 -12 -26q-21 -6 -35 -11l-23 -6v-27q86 6 138 6q35 0 136 -12zM469 404q0 -19 -24 -21q-59 -3 -179 -8h-9q-42 0 -42 17q0 25 22 86l54 156q30 0 120 1l41 -151q17 -64 17 -80zM484 838q0 4 -6 4h-84l-64 -111q-3 -6 -3 -9q0 -4 6 -4h44l98 106q9 11 9 14z" />
    <glyph glyph-name="Acircumflex" unicode="&#xc2;" horiz-adv-x="713" 
d="M711 0v27q-19 5 -33 7q-13 3 -24 4q-15 2 -19 28l-42 237q-10 57 -22 114l-23 112q-14 67 -14 93q0 20 10 21q22 5 66 13v31q-41 0 -81 -3q-41 -3 -84 -8q-46 -6 -111 -6q-51 0 -122 6t-163 17v-34q31 -18 66 -19q37 -2 111 -5q13 -2 13 -19q0 -15 -14 -46
q-19 -48 -19 -51l-67 -226l-52 -177q-14 -45 -15 -49q-11 -21 -42 -32q-8 -2 -13 -4t-7 -3v-28q24 0 60 3q34 3 45 3q60 0 82 3t20 3v30q-15 0 -60 2q-19 1 -19 38q0 39 27 139q15 57 40 69q23 13 125 19q8 1 26 3q18 1 45 5q29 5 43 6l14 2q26 0 31 -50l18 -199
q2 -21 -12 -26q-21 -6 -35 -11l-23 -6v-27q86 6 138 6q35 0 136 -12zM469 404q0 -19 -24 -21q-59 -3 -179 -8h-9q-42 0 -42 17q0 25 22 86l54 156q30 0 120 1l41 -151q17 -64 17 -80zM380 837l84 -102q8 -11 8 -13q0 -4 -5 -4h-76l-37 69l-36 -69h-75q-5 0 -5 4q0 2 8 13
l84 102q0 4 4 5h42q4 -1 4 -5z" />
    <glyph glyph-name="Atilde" unicode="&#xc3;" horiz-adv-x="713" 
d="M711 0v27q-19 5 -33 7q-13 3 -24 4q-15 2 -19 28l-42 237q-10 57 -22 114l-23 112q-14 67 -14 93q0 20 10 21q22 5 66 13v31q-41 0 -81 -3q-41 -3 -84 -8q-46 -6 -111 -6q-51 0 -122 6t-163 17v-34q31 -18 66 -19q37 -2 111 -5q13 -2 13 -19q0 -15 -14 -46
q-19 -48 -19 -51l-67 -226l-52 -177q-14 -45 -15 -49q-11 -21 -42 -32q-8 -2 -13 -4t-7 -3v-28q24 0 60 3q34 3 45 3q60 0 82 3t20 3v30q-15 0 -60 2q-19 1 -19 38q0 39 27 139q15 57 40 69q23 13 125 19q8 1 26 3q18 1 45 5q29 5 43 6l14 2q26 0 31 -50l18 -199
q2 -21 -12 -26q-21 -6 -35 -11l-23 -6v-27q86 6 138 6q35 0 136 -12zM469 404q0 -19 -24 -21q-59 -3 -179 -8h-9q-42 0 -42 17q0 25 22 86l54 156q30 0 120 1l41 -151q17 -64 17 -80zM523 787q-2 0 -7 -2q-5 -3 -11 -6q-6 -2 -13 -4q-8 -3 -12 -3q-17 0 -47 10
q-30 11 -71 11q-36 0 -80 -31q-34 -24 -34 -41q0 -8 2 -8q-1 0 17 10q19 11 52 11q6 0 16 -2q11 -2 29 -6q37 -8 58 -8q25 0 54 16q18 11 34 23q16 11 16 24q0 4 -3 6z" />
    <glyph glyph-name="Adieresis" unicode="&#xc4;" horiz-adv-x="713" 
d="M711 0v27q-19 5 -33 7q-13 3 -24 4q-15 2 -19 28l-42 237q-10 57 -22 114l-23 112q-14 67 -14 93q0 20 10 21q22 5 66 13v31q-41 0 -81 -3q-41 -3 -84 -8q-46 -6 -111 -6q-51 0 -122 6t-163 17v-34q31 -18 66 -19q37 -2 111 -5q13 -2 13 -19q0 -15 -14 -46
q-19 -48 -19 -51l-67 -226l-52 -177q-14 -45 -15 -49q-11 -21 -42 -32q-8 -2 -13 -4t-7 -3v-28q24 0 60 3q34 3 45 3q60 0 82 3t20 3v30q-15 0 -60 2q-19 1 -19 38q0 39 27 139q15 57 40 69q23 13 125 19q8 1 26 3q18 1 45 5q29 5 43 6l14 2q26 0 31 -50l18 -199
q2 -21 -12 -26q-21 -6 -35 -11l-23 -6v-27q86 6 138 6q35 0 136 -12zM469 404q0 -19 -24 -21q-59 -3 -179 -8h-9q-42 0 -42 17q0 25 22 86l54 156q30 0 120 1l41 -151q17 -64 17 -80zM498 773q-29 51 -52 68l-60 -57q27 -54 48 -65q27 8 64 54zM338 773q-28 49 -52 68
l-61 -57q29 -54 49 -65q23 7 64 54z" />
    <glyph glyph-name="Aring" unicode="&#xc5;" horiz-adv-x="713" 
d="M711 0v27q-19 5 -33 7q-13 3 -24 4q-15 2 -19 28l-42 237q-10 57 -22 114l-23 112q-14 67 -14 93q0 20 10 21q22 5 66 13v31q-41 0 -81 -3q-41 -3 -84 -8q-46 -6 -111 -6q-51 0 -122 6t-163 17v-34q31 -18 66 -19q37 -2 111 -5q13 -2 13 -19q0 -15 -14 -46
q-19 -48 -19 -51l-67 -226l-52 -177q-14 -45 -15 -49q-11 -21 -42 -32q-8 -2 -13 -4t-7 -3v-28q24 0 60 3q34 3 45 3q60 0 82 3t20 3v30q-15 0 -60 2q-19 1 -19 38q0 39 27 139q15 57 40 69q23 13 125 19q8 1 26 3q18 1 45 5q29 5 43 6l14 2q26 0 31 -50l18 -199
q2 -21 -12 -26q-21 -6 -35 -11l-23 -6v-27q86 6 138 6q35 0 136 -12zM469 404q0 -19 -24 -21q-59 -3 -179 -8h-9q-42 0 -42 17q0 25 22 86l54 156q30 0 120 1l41 -151q17 -64 17 -80zM354 718q63 0 63 69q0 62 -49 62q-28 0 -49 -21q-21 -20 -21 -47q0 -63 56 -63zM351 824
q30 0 30 -57q0 -27 -14 -27q-11 0 -21 16q-11 15 -11 30q0 38 16 38z" />
    <glyph glyph-name="AE" unicode="&#xc6;" horiz-adv-x="1097" 
d="M469 404q0 -19 -24 -21q-59 -3 -179 -8h-9q-42 0 -42 17q0 25 22 86l54 156q30 0 120 1l41 -151q17 -64 17 -80zM1074 437q-28 -2 -111 -7q0 50 42 139l26 49q11 21 20 33q-12 4 -34 13l-31 -44l-21 -29q-109 99 -164 99q-26 0 -93 -20l-57 -19q-23 -9 -37 -17
q-41 -25 -71 -80q-9 41 -9 68q0 20 10 21q22 5 66 13v31q-41 0 -81 -3q-41 -3 -84 -8q-46 -6 -111 -6q-51 0 -122 6t-163 17v-34q31 -18 66 -19q37 -2 111 -5q13 -2 13 -19q0 -15 -14 -46q-19 -48 -19 -51l-67 -226l-52 -177q-14 -45 -15 -49q-11 -21 -42 -32q-8 -2 -13 -4
t-7 -3v-28q24 0 60 3q34 3 45 3q60 0 82 3t20 3v30q-15 0 -60 2q-19 1 -19 38q0 39 27 139q15 57 40 69q23 13 125 19q8 1 26 3q18 1 45 5q29 5 43 6l14 2q26 0 31 -50l18 -199q2 -21 -12 -26q-21 -6 -35 -11l-23 -6v-27q86 6 138 6q14 0 37 -1q24 -2 57 -6q53 -21 121 -21
q73 0 205 48v-158q12 6 45 25q1 145 7 234q16 210 27 304zM928 425q-73 -2 -292 -9h-4q-32 0 -32 35q0 39 30 101q37 76 88 76q94 0 210 -203zM1018 343l-20 -255q-89 -27 -139 -27q-103 0 -184 77q-81 78 -81 177q0 19 26 25q15 3 61 3h337z" />
    <glyph glyph-name="Ccedilla" unicode="&#xc7;" horiz-adv-x="662" 
d="M343 -47l16 40h23q40 0 92 3q51 3 116 10v-189h42v263q0 44 -26 44q-14 0 -36 -24q-29 -33 -45 -45q-36 -23 -81 -23q-131 0 -218 98q-87 97 -87 247q0 120 43 192q43 74 115 74q46 0 91 -30q43 -28 120 -109l103 74q38 27 53 35l-27 38q-23 -14 -43 -25q-20 -12 -38 -19
q-110 101 -201 101q-60 0 -140 -39q-86 -44 -133 -113q-50 -73 -50 -214q0 -325 301 -347l-33 -76h27q23 0 23 -18q0 -36 -65 -36q-7 0 -21 3q-3 -8 -10 -25q19 -6 52 -6q46 0 74 18q28 17 28 48q0 48 -65 50z" />
    <glyph glyph-name="Egrave" unicode="&#xc8;" horiz-adv-x="635" 
d="M615 437q-27 -2 -111 -7q0 50 42 139l26 49q12 21 20 33l-34 13q-17 -26 -31 -44l-21 -29q-109 99 -164 99q-26 0 -93 -20l-56 -19q-24 -9 -37 -17q-55 -32 -90 -117q-34 -85 -34 -184q0 -163 80 -256q79 -93 219 -93q73 0 206 48v-158l45 25q1 145 6 234q16 210 27 304z
M469 425q-73 -2 -292 -9h-4q-32 0 -32 35q0 39 30 101q37 76 88 76q94 0 210 -203zM559 343l-19 -255q-89 -27 -140 -27q-103 0 -184 77q-81 78 -81 177q0 19 26 25q15 3 61 3h337zM360 731l-64 111h-84q-6 0 -6 -4q0 -3 9 -14l98 -106h44q6 0 6 4q1 3 -3 9z" />
    <glyph glyph-name="Eacute" unicode="&#xc9;" horiz-adv-x="635" 
d="M615 437q-27 -2 -111 -7q0 50 42 139l26 49q12 21 20 33l-34 13q-17 -26 -31 -44l-21 -29q-109 99 -164 99q-26 0 -93 -20l-56 -19q-24 -9 -37 -17q-55 -32 -90 -117q-34 -85 -34 -184q0 -163 80 -256q79 -93 219 -93q73 0 206 48v-158l45 25q1 145 6 234q16 210 27 304z
M469 425q-73 -2 -292 -9h-4q-32 0 -32 35q0 39 30 101q37 76 88 76q94 0 210 -203zM559 343l-19 -255q-89 -27 -140 -27q-103 0 -184 77q-81 78 -81 177q0 19 26 25q15 3 61 3h337zM484 838q0 4 -6 4h-84l-64 -111q-3 -6 -3 -9q0 -4 6 -4h44l98 106q9 11 9 14z" />
    <glyph glyph-name="Ecircumflex" unicode="&#xca;" horiz-adv-x="635" 
d="M615 437q-27 -2 -111 -7q0 50 42 139l26 49q12 21 20 33l-34 13q-17 -26 -31 -44l-21 -29q-109 99 -164 99q-26 0 -93 -20l-56 -19q-24 -9 -37 -17q-55 -32 -90 -117q-34 -85 -34 -184q0 -163 80 -256q79 -93 219 -93q73 0 206 48v-158l45 25q1 145 6 234q16 210 27 304z
M469 425q-73 -2 -292 -9h-4q-32 0 -32 35q0 39 30 101q37 76 88 76q94 0 210 -203zM559 343l-19 -255q-89 -27 -140 -27q-103 0 -184 77q-81 78 -81 177q0 19 26 25q15 3 61 3h337zM370 837l84 -102q8 -11 8 -13q0 -4 -5 -4h-76l-37 69l-36 -69h-76q-5 0 -5 4q0 2 9 13
l83 102q0 4 5 5h42q4 -1 4 -5z" />
    <glyph glyph-name="Edieresis" unicode="&#xcb;" horiz-adv-x="635" 
d="M615 437q-27 -2 -111 -7q0 50 42 139l26 49q12 21 20 33l-34 13q-17 -26 -31 -44l-21 -29q-109 99 -164 99q-26 0 -93 -20l-56 -19q-24 -9 -37 -17q-55 -32 -90 -117q-34 -85 -34 -184q0 -163 80 -256q79 -93 219 -93q73 0 206 48v-158l45 25q1 145 6 234q16 210 27 304z
M469 425q-73 -2 -292 -9h-4q-32 0 -32 35q0 39 30 101q37 76 88 76q94 0 210 -203zM559 343l-19 -255q-89 -27 -140 -27q-103 0 -184 77q-81 78 -81 177q0 19 26 25q15 3 61 3h337zM477 773q-28 51 -51 68l-60 -57q26 -54 48 -65q26 8 63 54zM317 773q-27 49 -52 68l-60 -57
q28 -54 49 -65q22 7 63 54z" />
    <glyph glyph-name="Igrave" unicode="&#xcc;" horiz-adv-x="478" 
d="M466 -13v21l-106 16v592q22 5 85 18q-2 8 -9 32q-19 -3 -76 -11q2 13 6 51h-36q-1 -14 -3 -53q-25 -7 -68 -7q-85 0 -160 9q-21 2 -43 5q-21 4 -43 6q0 -12 -2 -35q42 -4 166 -15q11 -1 21 -24q9 -23 9 -52v-413q0 -47 -8 -79q-9 -33 -22 -34l-121 -12q0 -7 -3 -28
q75 11 133 15q58 5 101 6q32 1 77 -1q44 -2 102 -7zM327 24h-26v589h26v-589zM231 731l-64 111h-84q-6 0 -6 -4q0 -3 9 -14l98 -106h44q6 0 6 4q0 3 -3 9z" />
    <glyph glyph-name="Iacute" unicode="&#xcd;" horiz-adv-x="478" 
d="M466 -13v21l-106 16v592q22 5 85 18q-2 8 -9 32q-19 -3 -76 -11q2 13 6 51h-36q-1 -14 -3 -53q-25 -7 -68 -7q-85 0 -160 9q-21 2 -43 5q-21 4 -43 6q0 -12 -2 -35q42 -4 166 -15q11 -1 21 -24q9 -23 9 -52v-413q0 -47 -8 -79q-9 -33 -22 -34l-121 -12q0 -7 -3 -28
q75 11 133 15q58 5 101 6q32 1 77 -1q44 -2 102 -7zM327 24h-26v589h26v-589zM404 838q0 4 -6 4h-84l-64 -111q-3 -6 -3 -9q0 -4 6 -4h44l98 106q9 11 9 14z" />
    <glyph glyph-name="Icircumflex" unicode="&#xce;" horiz-adv-x="478" 
d="M466 -13v21l-106 16v592q22 5 85 18q-2 8 -9 32q-19 -3 -76 -11q2 13 6 51h-36q-1 -14 -3 -53q-25 -7 -68 -7q-85 0 -160 9q-21 2 -43 5q-21 4 -43 6q0 -12 -2 -35q42 -4 166 -15q11 -1 21 -24q9 -23 9 -52v-413q0 -47 -8 -79q-9 -33 -22 -34l-121 -12q0 -7 -3 -28
q75 11 133 15q58 5 101 6q32 1 77 -1q44 -2 102 -7zM327 24h-26v589h26v-589zM275 837l84 -102q9 -11 9 -13q0 -4 -6 -4h-75l-36 69l-37 -69h-76q-5 0 -5 4q0 2 8 13l84 102q0 4 4 5h42q4 -1 4 -5z" />
    <glyph glyph-name="Idieresis" unicode="&#xcf;" horiz-adv-x="478" 
d="M466 -13v21l-106 16v592q22 5 85 18q-2 8 -9 32q-19 -3 -76 -11q2 13 6 51h-36q-1 -14 -3 -53q-25 -7 -68 -7q-85 0 -160 9q-21 2 -43 5q-21 4 -43 6q0 -12 -2 -35q42 -4 166 -15q11 -1 21 -24q9 -23 9 -52v-413q0 -47 -8 -79q-9 -33 -22 -34l-121 -12q0 -7 -3 -28
q75 11 133 15q58 5 101 6q32 1 77 -1q44 -2 102 -7zM327 24h-26v589h26v-589zM375 773q-29 51 -51 68l-61 -57q27 -54 48 -65q27 8 64 54zM215 773q-28 49 -52 68l-61 -57q29 -54 50 -65q22 7 63 54z" />
    <glyph glyph-name="Eth" unicode="&#xd0;" horiz-adv-x="770" 
d="M274 351q-6 90 -6 123q0 93 18 113q26 29 84 29q116 0 195 -95q78 -94 78 -238q0 -241 -144 -241q-43 0 -79 3t-68 8q-60 10 -62 27q-4 71 -11 212q-1 3 -1 12h278v47h-282zM97 351v-47h86v-152q0 -43 -6 -59q-8 -20 -32 -23q-18 -3 -54 -8q-44 -6 -72 -50
q-21 -36 -21 -79q0 -36 18 -53l25 17q-3 12 -3 22q0 47 49 74q41 19 93 15l280 -23q107 -10 190 92q84 100 84 238q0 179 -77 271q-76 92 -226 92q-75 0 -109 -21q-26 -15 -77 -47q-15 -8 -29 -8l-194 36q-12 -21 -12 -28q0 -6 126 -28q32 -9 40 -102q4 -43 6 -74
q1 -31 1 -52v-3h-86z" />
    <glyph glyph-name="Ntilde" unicode="&#xd1;" horiz-adv-x="823" 
d="M808 621v32l-237 -8v-29q21 -1 84 -7q21 -2 21 -100v-280q0 -53 -14 -53q-10 0 -57 44l-362 337q-35 33 -43 54q-7 19 -7 67h-16q-23 0 -65 -3q-25 -2 -59 -9q-37 -9 -42 -15q2 -9 5 -26q17 4 35 6q19 2 41 2q20 0 24 -4q9 -8 15 -37l26 -118v-245q0 -36 -10 -105
q-11 -79 -22 -87q-26 -18 -72 -18q-2 -6 0 -30q55 5 97 8q41 3 71 3q43 0 122 -6q1 9 3 29q-63 12 -116 12q-37 0 -37 58v367l483 -425v-46h37q2 130 10 520q1 93 21 98zM553 787q-2 0 -7 -2q-5 -3 -11 -6l-14 -4q-7 -3 -11 -3q-17 0 -47 10q-30 11 -71 11q-37 0 -81 -31
q-33 -24 -33 -41q0 -8 2 -8q-1 0 17 10q18 11 52 11q5 0 16 -2t28 -6q38 -8 59 -8q25 0 54 16l34 23q16 11 16 24q0 4 -3 6z" />
    <glyph glyph-name="Ograve" unicode="&#xd2;" horiz-adv-x="753" 
d="M717 332q0 178 -87 271q-87 92 -255 92q-166 0 -253 -95q-86 -96 -86 -268q0 -83 22 -148q23 -65 66 -110q43 -44 104 -68q62 -23 139 -23q163 0 257 93q93 93 93 256zM602 291q0 -256 -171 -256q-124 0 -207 101q-82 104 -82 255q0 121 52 189q51 67 141 67
q121 0 193 -97q74 -97 74 -259zM398 731l-64 111h-84q-6 0 -6 -4q0 -3 9 -14l98 -106h44q6 0 6 4q0 3 -3 9z" />
    <glyph glyph-name="Oacute" unicode="&#xd3;" horiz-adv-x="753" 
d="M717 332q0 178 -87 271q-87 92 -255 92q-166 0 -253 -95q-86 -96 -86 -268q0 -83 22 -148q23 -65 66 -110q43 -44 104 -68q62 -23 139 -23q163 0 257 93q93 93 93 256zM602 291q0 -256 -171 -256q-124 0 -207 101q-82 104 -82 255q0 121 52 189q51 67 141 67
q121 0 193 -97q74 -97 74 -259zM511 838q0 4 -6 4h-84l-65 -111q-3 -6 -3 -9q1 -4 6 -4h44l99 106q9 11 9 14z" />
    <glyph glyph-name="Ocircumflex" unicode="&#xd4;" horiz-adv-x="753" 
d="M717 332q0 178 -87 271q-87 92 -255 92q-166 0 -253 -95q-86 -96 -86 -268q0 -83 22 -148q23 -65 66 -110q43 -44 104 -68q62 -23 139 -23q163 0 257 93q93 93 93 256zM602 291q0 -256 -171 -256q-124 0 -207 101q-82 104 -82 255q0 121 52 189q51 67 141 67
q121 0 193 -97q74 -97 74 -259zM404 837l84 -102q9 -11 9 -13q0 -4 -5 -4h-76l-37 69l-36 -69h-76q-5 0 -5 4q0 2 8 13l84 102q0 4 4 5h42q4 -1 4 -5z" />
    <glyph glyph-name="Otilde" unicode="&#xd5;" horiz-adv-x="753" 
d="M717 332q0 178 -87 271q-87 92 -255 92q-166 0 -253 -95q-86 -96 -86 -268q0 -83 22 -148q23 -65 66 -110q43 -44 104 -68q62 -23 139 -23q163 0 257 93q93 93 93 256zM602 291q0 -256 -171 -256q-124 0 -207 101q-82 104 -82 255q0 121 52 189q51 67 141 67
q121 0 193 -97q74 -97 74 -259zM523 787q-2 0 -7 -2q-5 -3 -11 -6q-6 -2 -13 -4q-8 -3 -12 -3q-17 0 -47 10q-30 11 -71 11q-36 0 -80 -31q-34 -24 -34 -41q0 -8 2 -8q-1 0 17 10q19 11 52 11q6 0 16 -2q11 -2 29 -6q37 -8 58 -8q25 0 54 16q18 11 34 23q16 11 16 24
q0 4 -3 6z" />
    <glyph glyph-name="Odieresis" unicode="&#xd6;" horiz-adv-x="753" 
d="M717 332q0 178 -87 271q-87 92 -255 92q-166 0 -253 -95q-86 -96 -86 -268q0 -83 22 -148q23 -65 66 -110q43 -44 104 -68q62 -23 139 -23q163 0 257 93q93 93 93 256zM602 291q0 -256 -171 -256q-124 0 -207 101q-82 104 -82 255q0 121 52 189q51 67 141 67
q121 0 193 -97q74 -97 74 -259zM528 773q-28 51 -51 68l-60 -57q26 -54 48 -65q27 8 63 54zM369 773q-28 49 -53 68l-60 -57q29 -54 49 -65q23 7 64 54z" />
    <glyph glyph-name="multiply" unicode="&#xd7;" horiz-adv-x="545" 
d="M402 438q8 -17 29 -68l-126 -119l149 -152q-9 -16 -33 -64l-166 166l-132 -142l1 -1q1 0 2 -1v1q0 -2 -17 27q-18 30 -18 39q0 2 1 3q56 71 112 124l-137 137l37 65l151 -151z" />
    <glyph glyph-name="Oslash" unicode="&#xd8;" horiz-adv-x="753" 
d="M226 134q-84 103 -84 257q0 121 52 189q51 67 141 67q117 0 188 -90zM543 530q59 -94 59 -239q0 -256 -171 -256q-105 0 -183 77zM622 696l-39 -55q-82 54 -208 54q-166 0 -253 -95q-86 -96 -86 -268q0 -200 125 -291l-31 -42l26 -17l30 43q76 -42 181 -42q163 0 257 93
q93 93 93 256q0 198 -110 291q14 18 40 56z" />
    <glyph glyph-name="Ugrave" unicode="&#xd9;" horiz-adv-x="664" 
d="M669 31q-62 36 -77 65q-15 31 -15 115v422q-34 -2 -135 -6v-25q22 -11 25 -15q25 -30 25 -92v-290q0 -148 -157 -148q-48 0 -95 25q-47 24 -64 58q-21 41 -21 149v200q0 31 9 138q-71 -6 -159 -6v-3v-21q14 -5 24 -10q9 -5 14 -9q24 -21 24 -50v-341q0 -92 60 -149
q59 -56 159 -56q59 0 110 32l42 35l42 35l82 -80q13 -13 38 -13q27 0 69 40zM332 731l-65 111h-84q-6 0 -6 -4q0 -3 9 -14l99 -106h44q6 0 6 4q0 3 -3 9z" />
    <glyph glyph-name="Uacute" unicode="&#xda;" horiz-adv-x="664" 
d="M669 31q-62 36 -77 65q-15 31 -15 115v422q-34 -2 -135 -6v-25q22 -11 25 -15q25 -30 25 -92v-290q0 -148 -157 -148q-48 0 -95 25q-47 24 -64 58q-21 41 -21 149v200q0 31 9 138q-71 -6 -159 -6v-3v-21q14 -5 24 -10q9 -5 14 -9q24 -21 24 -50v-341q0 -92 60 -149
q59 -56 159 -56q59 0 110 32l42 35l42 35l82 -80q13 -13 38 -13q27 0 69 40zM447 838q0 4 -6 4h-84l-64 -111q-3 -6 -3 -9q0 -4 6 -4h44l98 106q9 11 9 14z" />
    <glyph glyph-name="Ucircumflex" unicode="&#xdb;" horiz-adv-x="664" 
d="M669 31q-62 36 -77 65q-15 31 -15 115v422q-34 -2 -135 -6v-25q22 -11 25 -15q25 -30 25 -92v-290q0 -148 -157 -148q-48 0 -95 25q-47 24 -64 58q-21 41 -21 149v200q0 31 9 138q-71 -6 -159 -6v-3v-21q14 -5 24 -10q9 -5 14 -9q24 -21 24 -50v-341q0 -92 60 -149
q59 -56 159 -56q59 0 110 32l42 35l42 35l82 -80q13 -13 38 -13q27 0 69 40zM347 837l84 -102q8 -11 8 -13q0 -4 -5 -4h-76l-35 69q-10 -17 -37 -69h-76q-5 0 -5 4q0 2 8 13l84 102q0 4 4 5h42q4 -1 4 -5z" />
    <glyph glyph-name="Udieresis" unicode="&#xdc;" horiz-adv-x="664" 
d="M669 31q-62 36 -77 65q-15 31 -15 115v422q-34 -2 -135 -6v-25q22 -11 25 -15q25 -30 25 -92v-290q0 -148 -157 -148q-48 0 -95 25q-47 24 -64 58q-21 41 -21 149v200q0 31 9 138q-71 -6 -159 -6v-3v-21q14 -5 24 -10q9 -5 14 -9q24 -21 24 -50v-341q0 -92 60 -149
q59 -56 159 -56q59 0 110 32l42 35l42 35l82 -80q13 -13 38 -13q27 0 69 40zM457 773q-29 51 -51 68l-61 -57q27 -54 48 -65q27 8 64 54zM297 773q-28 49 -52 68l-61 -57q29 -54 49 -65q23 7 64 54z" />
    <glyph glyph-name="Yacute" unicode="&#xdd;" horiz-adv-x="502" 
d="M503 638q0 6 -13 12t-31 6h-16q-6 -1 -10 -5q-3 -3 -4 -10q-2 -7 -5 -19l-2 -21q0 -10 -1 -20q-2 -18 -9 -38q-6 -21 -18 -46q-11 -27 -25 -53l-28 -52q-31 -55 -39 -55q-16 0 -176 319q-6 6 -13 6h-5l-90 -33q-14 -5 -14 -21q0 -11 34 -14l192 -336q-1 -37 -7 -147
q-5 -89 -57 -99q-46 -11 -65 -15v-31q12 0 87 16q78 14 182 14h77v31l-96 4q-25 1 -25 94v147l129 251q48 94 48 115zM418 838q0 4 -6 4h-84l-65 -111q-3 -6 -3 -9q0 -4 6 -4h44l99 106q9 11 9 14z" />
    <glyph glyph-name="Thorn" unicode="&#xde;" horiz-adv-x="739" 
d="M705 423q0 102 -104 138q-67 24 -214 24h-63q-24 -1 -40 -1h-24q-27 0 -35 20q-8 22 -22 22q-34 0 -97 11l-48 8q-24 4 -48 9v-9v-20l95 -20q25 -4 39 -125q4 -37 6 -72t2 -70v-207q0 -80 -23 -99q-21 -19 -104 -19v-27q14 1 44 2q29 2 75 6q75 6 120 6q49 0 148 -9
t147 -9v31q-113 19 -305 19v121q65 -13 125 -13q117 0 217 77q109 84 109 206zM603 426v-3q0 -66 -41 -135q-52 -88 -142 -95q-7 -1 -15 -1q-64 0 -134 49q-15 11 -17 15q-10 28 -10 49q0 4 3 212q0 17 31 17h33q12 -2 20 -2h14q134 0 170 -8q86 -19 88 -98z" />
    <glyph glyph-name="germandbls" unicode="&#xdf;" horiz-adv-x="437" 
d="M125 290q0 15 1 61l4 46q0 15 1 61q15 7 33 7q66 0 85 -6q31 -9 31 -46q0 -102 -155 -123zM122 35q1 53 3 211h69q46 0 84 -35t40 -80v-2q1 -49 -36 -88q-39 -39 -89 -39q-22 0 -38 9q-2 1 -33 24zM406 153q0 56 -47 95q-28 20 -99 50q59 33 84 62q25 30 25 70
q0 19 -11 29q-8 6 -15 12q-8 6 -16 11q-45 33 -109 33q-43 0 -87 -17q0 20 -1 60q-1 31 0 49q0 19 1 24q8 45 43 45q36 0 94 -77q41 44 41 77q0 16 -31 33q-31 18 -49 18q-49 0 -92 -24q-44 -24 -63 -62q-29 -54 -33 -245l-33 -23q-4 -11 -6 -17q-2 -7 -3 -9h47v-409
q0 -14 11 -14q3 0 62 72q35 -22 101 -22q186 0 186 179z" />
    <glyph glyph-name="agrave" unicode="&#xe0;" 
d="M383 28q-43 19 -57 38t-14 35v215q0 29 -47 69q-47 41 -84 41q-22 0 -80 -41q-61 -45 -61 -69q0 -13 12 -24q11 -11 22 -11q7 0 34 12q26 14 26 22q0 12 -22 31q25 16 41 16q67 0 70 -122l-141 -86q-21 -13 -35 -40q-15 -28 -15 -55q0 -34 21 -57q21 -24 52 -24
q36 0 48 9q56 41 70 49q9 0 44 -32q3 -3 28 -11q24 -8 32 -8q16 0 26 8q10 11 30 35zM223 80q0 -14 -23 -30q-24 -14 -41 -14q-41 0 -41 44q0 34 19 59q38 50 72 50q11 0 13 -2q1 -3 1 -19v-88zM211 513l-65 111h-84q-6 0 -6 -4t10 -14l98 -106h44q6 0 6 4q0 3 -3 9z" />
    <glyph glyph-name="aacute" unicode="&#xe1;" 
d="M383 28q-43 19 -57 38t-14 35v215q0 29 -47 69q-47 41 -84 41q-22 0 -80 -41q-61 -45 -61 -69q0 -13 12 -24q11 -11 22 -11q7 0 34 12q26 14 26 22q0 12 -22 31q25 16 41 16q67 0 70 -122l-141 -86q-21 -13 -35 -40q-15 -28 -15 -55q0 -34 21 -57q21 -24 52 -24
q36 0 48 9q56 41 70 49q9 0 44 -32q3 -3 28 -11q24 -8 32 -8q16 0 26 8q10 11 30 35zM223 80q0 -14 -23 -30q-24 -14 -41 -14q-41 0 -41 44q0 34 19 59q38 50 72 50q11 0 13 -2q1 -3 1 -19v-88zM317 620q0 4 -6 4h-84l-64 -111q-3 -6 -3 -9q0 -4 6 -4h44l98 106q9 10 9 14z
" />
    <glyph glyph-name="acircumflex" unicode="&#xe2;" 
d="M383 28q-43 19 -57 38t-14 35v215q0 29 -47 69q-47 41 -84 41q-22 0 -80 -41q-61 -45 -61 -69q0 -13 12 -24q11 -11 22 -11q7 0 34 12q26 14 26 22q0 12 -22 31q25 16 41 16q67 0 70 -122l-141 -86q-21 -13 -35 -40q-15 -28 -15 -55q0 -34 21 -57q21 -24 52 -24
q36 0 48 9q56 41 70 49q9 0 44 -32q3 -3 28 -11q24 -8 32 -8q16 0 26 8q10 11 30 35zM223 80q0 -14 -23 -30q-24 -14 -41 -14q-41 0 -41 44q0 34 19 59q38 50 72 50q11 0 13 -2q1 -3 1 -19v-88zM212 618l84 -101q8 -11 8 -13q0 -4 -5 -4h-76l-37 69l-35 -69h-76q-5 0 -5 4
q0 2 8 13l84 101q0 5 4 6h42q4 -1 4 -6z" />
    <glyph glyph-name="atilde" unicode="&#xe3;" 
d="M383 28q-43 19 -57 38t-14 35v215q0 29 -47 69q-47 41 -84 41q-22 0 -80 -41q-61 -45 -61 -69q0 -13 12 -24q11 -11 22 -11q7 0 34 12q26 14 26 22q0 12 -22 31q25 16 41 16q67 0 70 -122l-141 -86q-21 -13 -35 -40q-15 -28 -15 -55q0 -34 21 -57q21 -24 52 -24
q36 0 48 9q56 41 70 49q9 0 44 -32q3 -3 28 -11q24 -8 32 -8q16 0 26 8q10 11 30 35zM223 80q0 -14 -23 -30q-24 -14 -41 -14q-41 0 -41 44q0 34 19 59q38 50 72 50q11 0 13 -2q1 -3 1 -19v-88zM325 569q-2 0 -8 -2q-5 -3 -11 -6q-6 -2 -13 -4q-7 -3 -11 -3q-18 0 -48 10
q-29 10 -70 10q-37 0 -81 -30q-34 -24 -34 -41q0 -8 2 -8q-1 0 18 10q18 11 52 11q5 0 16 -2q10 -2 28 -6q38 -8 58 -8q26 0 55 16q17 11 33 23q17 11 17 24q0 4 -3 6z" />
    <glyph glyph-name="adieresis" unicode="&#xe4;" 
d="M331 611q0 13 -18 13h-48q-9 0 -15 -15q-5 -14 -10 -30q-23 -55 -23 -66q0 -13 23 -13q4 0 19 17l48 53q24 27 24 41zM223 611q0 13 -17 13h-48q-10 0 -15 -15q-6 -14 -11 -30q-22 -55 -22 -66q0 -13 22 -13q4 0 20 17l48 53q23 27 23 41zM383 28q-43 19 -57 38t-14 35
v215q0 29 -47 69q-47 41 -84 41q-22 0 -80 -41q-61 -45 -61 -69q0 -13 12 -24q11 -11 22 -11q7 0 34 12q26 14 26 22q0 12 -22 31q25 16 41 16q67 0 70 -122l-141 -86q-21 -13 -35 -40q-15 -28 -15 -55q0 -34 21 -57q21 -24 52 -24q36 0 48 9q56 41 70 49q9 0 44 -32
q3 -3 28 -11q24 -8 32 -8q16 0 26 8q10 11 30 35zM223 80q0 -14 -23 -30q-24 -14 -41 -14q-41 0 -41 44q0 34 19 59q38 50 72 50q11 0 13 -2q1 -3 1 -19v-88z" />
    <glyph glyph-name="aring" unicode="&#xe5;" 
d="M383 28q-43 19 -57 38t-14 35v215q0 29 -47 69q-47 41 -84 41q-22 0 -80 -41q-61 -45 -61 -69q0 -13 12 -24q11 -11 22 -11q7 0 34 12q26 14 26 22q0 12 -22 31q25 16 41 16q67 0 70 -122l-141 -86q-21 -13 -35 -40q-15 -28 -15 -55q0 -34 21 -57q21 -24 52 -24
q36 0 48 9q56 41 70 49q9 0 44 -32q3 -3 28 -11q24 -8 32 -8q16 0 26 8q10 11 30 35zM223 80q0 -14 -23 -30q-24 -14 -41 -14q-41 0 -41 44q0 34 19 59q38 50 72 50q11 0 13 -2q1 -3 1 -19v-88zM195 500q62 0 62 69q0 62 -49 62q-28 0 -49 -21q-21 -20 -21 -47q0 -63 57 -63
zM191 606q30 0 30 -57q0 -27 -14 -27q-10 0 -21 16q-11 15 -11 30q0 38 16 38z" />
    <glyph glyph-name="ae" unicode="&#xe6;" horiz-adv-x="543" 
d="M223 146v-66q0 -14 -23 -30q-24 -14 -41 -14q-41 0 -41 44q0 34 19 59q38 50 72 50q10 0 12 -2v-1q0 -10 1 -20q0 -9 1 -20zM550 361q-5 6 -19 24q-9 -6 -38 -24q-43 62 -84 62q-59 0 -125 -54q-55 57 -103 57q-22 0 -80 -41q-61 -45 -61 -69q0 -13 12 -24q11 -11 22 -11
q7 0 34 12q26 14 26 22q0 12 -22 31q25 16 41 16q67 0 70 -122l-141 -86q-21 -13 -35 -40q-15 -28 -15 -55q0 -34 21 -57q21 -24 52 -24q36 0 48 9q56 41 70 49q9 0 44 -32q3 -3 28 -11q24 -8 32 -8q5 0 15 2q16 -3 35 -3q27 0 53 16l108 71q-5 7 -19 30l-77 -50
q-9 -6 -21 -6q-35 0 -69 35t-40 83v36l2 13l151 90zM419 330q0 -11 -18 -22l-89 -51q2 27 7 50t10 42q7 29 40 29q12 0 30 -21q20 -19 20 -27z" />
    <glyph glyph-name="ccedilla" unicode="&#xe7;" horiz-adv-x="349" 
d="M184 -40l12 25q46 2 78 25q12 8 31 28q20 20 47 51q-7 8 -22 23q-55 -67 -89 -67q-28 0 -51 13t-40 35q-17 23 -26 54t-9 68q0 92 8 123q12 46 56 46q30 0 66 -45q35 -44 36 -44q7 0 28 22q23 23 23 35q0 29 -41 55q-41 25 -88 25q-41 0 -74 -18t-56 -50q-23 -33 -35 -81
q-12 -47 -12 -106q0 -87 36 -136q37 -49 108 -55l-27 -55h25q22 0 22 -15q0 -31 -62 -31q-6 0 -19 3q-4 -6 -10 -20q20 -6 49 -6q98 0 98 56q0 40 -62 42z" />
    <glyph glyph-name="egrave" unicode="&#xe8;" horiz-adv-x="347" 
d="M356 361q-4 6 -18 24l-39 -24q-43 62 -84 62t-76 -19q-8 -5 -22 -15q-15 -10 -35 -28q-26 -20 -41 -73q-13 -46 -13 -102q0 -98 41 -150t114 -52q28 0 54 16l107 71q-5 7 -18 30q-20 -12 -77 -50q-9 -6 -22 -6q-39 0 -72 39q-37 41 -37 96q0 18 3 32l150 90zM225 330
q0 -11 -17 -22l-89 -51q2 27 6 50q5 23 10 42q7 29 40 29q12 0 31 -21q19 -19 19 -27zM211 513l-65 111h-84q-6 0 -6 -4t10 -14l98 -106h44q6 0 6 4q0 3 -3 9z" />
    <glyph glyph-name="eacute" unicode="&#xe9;" horiz-adv-x="347" 
d="M356 361q-4 6 -18 24l-39 -24q-43 62 -84 62t-76 -19q-8 -5 -22 -15q-15 -10 -35 -28q-26 -20 -41 -73q-13 -46 -13 -102q0 -98 41 -150t114 -52q28 0 54 16l107 71q-5 7 -18 30q-20 -12 -77 -50q-9 -6 -22 -6q-39 0 -72 39q-37 41 -37 96q0 18 3 32l150 90zM225 330
q0 -11 -17 -22l-89 -51q2 27 6 50q5 23 10 42q7 29 40 29q12 0 31 -21q19 -19 19 -27zM317 620q0 4 -6 4h-84l-64 -111q-3 -6 -3 -9q0 -4 6 -4h44l98 106q9 10 9 14z" />
    <glyph glyph-name="ecircumflex" unicode="&#xea;" horiz-adv-x="347" 
d="M356 361q-4 6 -18 24l-39 -24q-43 62 -84 62t-76 -19q-8 -5 -22 -15q-15 -10 -35 -28q-26 -20 -41 -73q-13 -46 -13 -102q0 -98 41 -150t114 -52q28 0 54 16l107 71q-5 7 -18 30q-20 -12 -77 -50q-9 -6 -22 -6q-39 0 -72 39q-37 41 -37 96q0 18 3 32l150 90zM225 330
q0 -11 -17 -22l-89 -51q2 27 6 50q5 23 10 42q7 29 40 29q12 0 31 -21q19 -19 19 -27zM212 618l84 -101q8 -11 8 -13q0 -4 -5 -4h-76l-37 69l-35 -69h-76q-5 0 -5 4q0 2 8 13l84 101q0 5 4 6h42q4 -1 4 -6z" />
    <glyph glyph-name="edieresis" unicode="&#xeb;" horiz-adv-x="347" 
d="M356 361q-4 6 -18 24l-39 -24q-43 62 -84 62t-76 -19q-8 -5 -22 -15q-15 -10 -35 -28q-26 -20 -41 -73q-13 -46 -13 -102q0 -98 41 -150t114 -52q28 0 54 16l107 71q-5 7 -18 30q-20 -12 -77 -50q-9 -6 -22 -6q-39 0 -72 39q-37 41 -37 96q0 18 3 32l150 90zM225 330
q0 -11 -17 -22l-89 -51q2 27 6 50q5 23 10 42q7 29 40 29q12 0 31 -21q19 -19 19 -27zM223 611q0 13 -17 13h-48q-10 0 -15 -15q-6 -14 -11 -30q-22 -55 -22 -66q0 -13 22 -13q4 0 20 17l48 53q23 27 23 41zM331 611q0 13 -18 13h-48q-9 0 -15 -15q-5 -14 -10 -30
q-23 -55 -23 -66q0 -13 23 -13q4 0 19 17l48 53q24 27 24 41z" />
    <glyph glyph-name="igrave" unicode="&#xec;" horiz-adv-x="195" 
d="M201 81q-10 20 -17 20l-45 -31v323q0 38 -11 38q-2 0 -8 -2q-124 -29 -124 -41q0 -7 41 -48q16 -16 16 -75v-254q0 -14 2 -17t14 -3q15 0 44 20zM47 513l-63 111h-84q-6 0 -6 -4t9 -14l97 -106h44q6 0 6 4q0 3 -3 9z" />
    <glyph glyph-name="iacute" unicode="&#xed;" horiz-adv-x="195" 
d="M201 81q-10 20 -17 20l-45 -31v323q0 38 -11 38q-2 0 -8 -2q-124 -29 -124 -41q0 -7 41 -48q16 -16 16 -75v-254q0 -14 2 -17t14 -3q15 0 44 20zM256 620q0 4 -6 4h-84l-65 -111q-3 -6 -3 -9q1 -4 6 -4h44l99 106q9 10 9 14z" />
    <glyph glyph-name="icircumflex" unicode="&#xee;" horiz-adv-x="195" 
d="M201 81q-10 20 -17 20l-45 -31v323q0 38 -11 38q-2 0 -8 -2q-124 -29 -124 -41q0 -7 41 -48q16 -16 16 -75v-254q0 -14 2 -17t14 -3q15 0 44 20zM110 618l84 -101q8 -11 8 -13q0 -4 -5 -4h-76l-37 69l-36 -69h-75q-5 0 -5 4q0 2 8 13l83 101q0 5 4 6h42q5 -1 5 -6z" />
    <glyph glyph-name="idieresis" unicode="&#xef;" horiz-adv-x="195" 
d="M201 81q-10 20 -17 20l-45 -31v323q0 38 -11 38q-2 0 -8 -2q-124 -29 -124 -41q0 -7 41 -48q16 -16 16 -75v-254q0 -14 2 -17t14 -3q15 0 44 20zM121 611q0 13 -18 13h-48q-9 0 -15 -15q-5 -14 -10 -30q-23 -55 -23 -66q0 -13 23 -13q4 0 19 17l48 53q24 27 24 41z
M228 611q0 13 -17 13h-48q-9 0 -15 -15q-6 -14 -11 -30q-22 -55 -22 -66q0 -13 22 -13q4 0 20 17l48 53q23 27 23 41z" />
    <glyph glyph-name="eth" unicode="&#xf0;" horiz-adv-x="443" 
d="M296 141q0 -47 -16 -56l-64 -35q-7 -4 -14 -4q-37 0 -65 63q-26 64 -26 142q0 133 59 133q58 0 96 -35q30 -26 30 -48v-160zM90 570l16 -44l119 43q69 -105 69 -147q-14 2 -36 3q-21 1 -48 1q-185 0 -185 -221q0 -106 39 -163t108 -57q14 0 38 14l89 54q0 -66 23 -66
l77 43q55 30 55 44q-3 8 -10 23q-12 -6 -51 -23q-11 -5 -14 108q1 107 2 322l-72 96l95 35l-16 44l-108 -40l-42 56q-7 7 -12 28q-1 8 -9 8h-4q-113 -8 -113 -19q0 -5 16 -18q11 -9 19 -17l15 -15l46 -53q-27 -9 -106 -39z" />
    <glyph glyph-name="ntilde" unicode="&#xf1;" horiz-adv-x="449" 
d="M463 86q-4 6 -14 23l-43 -32q-20 -14 -36 -24q7 68 10 117q4 50 4 85q0 75 -27 110q-26 35 -103 61q-30 -12 -81 -48q-42 -30 -44 -26q-28 31 -60 54l-71 -41q38 -39 48 -68q10 -25 10 -80v-247l80 47v300l67 44q45 0 75 -57q29 -57 23 -137l-9 -124l-6 -29t-2 -12
q0 -4 7 -9q8 -4 15 -4q16 0 78 36q27 19 46 34zM345 569q-2 0 -7 -2q-5 -3 -11 -6q-6 -2 -14 -4q-7 -3 -11 -3q-17 0 -47 10t-71 10q-37 0 -81 -30q-33 -24 -33 -41q0 -8 2 -8q-1 0 17 10q19 11 52 11q5 0 16 -2t28 -6q38 -8 59 -8q25 0 54 16l34 23q16 11 16 24q0 4 -3 6z
" />
    <glyph glyph-name="ograve" unicode="&#xf2;" horiz-adv-x="397" 
d="M371 241q0 197 -137 197q-88 0 -147 -70q-59 -69 -59 -171q0 -93 42 -153q43 -59 109 -59q34 0 82 28q65 40 87 90q23 47 23 138zM294 159q0 -119 -51 -119q-31 0 -56 15t-44 40q-18 27 -28 64t-10 82q0 143 64 143q54 0 89 -66q36 -65 36 -159zM211 513l-65 111h-84
q-6 0 -6 -4t10 -14l98 -106h44q6 0 6 4q0 3 -3 9z" />
    <glyph glyph-name="oacute" unicode="&#xf3;" horiz-adv-x="397" 
d="M371 241q0 197 -137 197q-88 0 -147 -70q-59 -69 -59 -171q0 -93 42 -153q43 -59 109 -59q34 0 82 28q65 40 87 90q23 47 23 138zM294 159q0 -119 -51 -119q-31 0 -56 15t-44 40q-18 27 -28 64t-10 82q0 143 64 143q54 0 89 -66q36 -65 36 -159zM369 620q0 4 -7 4h-83
l-65 -111q-3 -6 -3 -9q0 -4 6 -4h44l98 106q10 10 10 14z" />
    <glyph glyph-name="ocircumflex" unicode="&#xf4;" horiz-adv-x="397" 
d="M371 241q0 197 -137 197q-88 0 -147 -70q-59 -69 -59 -171q0 -93 42 -153q43 -59 109 -59q34 0 82 28q65 40 87 90q23 47 23 138zM294 159q0 -119 -51 -119q-31 0 -56 15t-44 40q-18 27 -28 64t-10 82q0 143 64 143q54 0 89 -66q36 -65 36 -159zM243 618l84 -101
q8 -11 8 -13q0 -4 -5 -4h-76l-37 69l-36 -69h-76q-5 0 -5 4q0 2 9 13l84 101q0 5 4 6h42q4 -1 4 -6z" />
    <glyph glyph-name="otilde" unicode="&#xf5;" horiz-adv-x="397" 
d="M371 241q0 197 -137 197q-88 0 -147 -70q-59 -69 -59 -171q0 -93 42 -153q43 -59 109 -59q34 0 82 28q65 40 87 90q23 47 23 138zM294 159q0 -119 -51 -119q-31 0 -56 15t-44 40q-18 27 -28 64t-10 82q0 143 64 143q54 0 89 -66q36 -65 36 -159zM366 569q-2 0 -8 -2
q-5 -3 -11 -6q-6 -2 -13 -4q-7 -3 -11 -3q-18 0 -48 10q-29 10 -70 10q-37 0 -81 -30q-34 -24 -34 -41q0 -8 2 -8q-1 0 18 10q18 11 52 11q5 0 16 -2q10 -2 28 -6q38 -8 58 -8q26 0 54 16q18 11 34 23q17 11 17 24q0 4 -3 6z" />
    <glyph glyph-name="odieresis" unicode="&#xf6;" horiz-adv-x="397" 
d="M371 241q0 197 -137 197q-88 0 -147 -70q-59 -69 -59 -171q0 -93 42 -153q43 -59 109 -59q34 0 82 28q65 40 87 90q23 47 23 138zM294 159q0 -119 -51 -119q-31 0 -56 15t-44 40q-18 27 -28 64t-10 82q0 143 64 143q54 0 89 -66q36 -65 36 -159zM254 611q0 13 -17 13h-49
q-9 0 -14 -15q-6 -14 -11 -30q-23 -55 -23 -66q0 -13 23 -13q4 0 19 17l48 53q24 27 24 41zM361 611q0 13 -17 13h-48q-9 0 -15 -15q-6 -14 -11 -30q-22 -55 -22 -66q0 -13 22 -13q4 0 20 17l48 53q23 27 23 41z" />
    <glyph glyph-name="divide" unicode="&#xf7;" horiz-adv-x="444" 
d="M411 185q0 15 -33 15h-9q-89 -5 -266 -14q-56 -3 -56 -38q0 -11 10 -21q10 -9 22 -9q89 2 267 8q27 1 46 19q19 19 19 40zM288 272q8 11 8 17q0 7 -11 16l-55 44q-3 3 -7 3q-6 0 -11 -6l-44 -50q-8 -10 -8 -16q0 -8 10 -17l48 -42q7 -6 13 -6q7 0 14 7zM288 14q8 11 8 17
q0 7 -11 16l-55 44q-3 3 -7 3q-6 0 -11 -6l-44 -50q-8 -10 -8 -16q0 -8 10 -17l48 -41q7 -6 13 -6q7 0 14 7q14 17 43 49z" />
    <glyph glyph-name="oslash" unicode="&#xf8;" horiz-adv-x="397" 
d="M126 128q-21 49 -21 113q0 143 64 143q54 0 90 -67zM274 285q20 -55 20 -126q0 -119 -51 -119q-62 0 -101 57zM344 438l-23 -32q-33 32 -87 32q-88 0 -147 -70q-59 -69 -59 -171q0 -92 41 -151l-32 -45l25 -16q7 9 27 37q38 -37 90 -37q34 0 82 28q65 40 87 90
q23 47 23 138q0 88 -30 139l29 41q-7 4 -26 17z" />
    <glyph glyph-name="ugrave" unicode="&#xf9;" horiz-adv-x="416" 
d="M417 35q-38 28 -45 42q-10 21 -8 74q6 246 6 251q0 13 -9 15q-1 1 -17 1l-52 -6q-59 -9 -59 -21q0 -8 13 -20l42 -43q2 -28 3 -46t1 -26v-27q0 -83 -24 -131q-23 -49 -64 -49q-85 0 -85 163v27l8 116q3 41 3 49q0 11 -3 12q-2 2 -14 2l-88 -17q-27 -5 -27 -15
q0 -8 10 -18q10 -11 31 -31v-220q0 -51 39 -92q41 -39 91 -39q32 0 113 63q21 -27 49 -44q7 -3 13 -6t13 -5zM211 513l-65 111h-84q-6 0 -6 -4t10 -14l98 -106h44q6 0 6 4q0 3 -3 9z" />
    <glyph glyph-name="uacute" unicode="&#xfa;" horiz-adv-x="416" 
d="M417 35q-38 28 -45 42q-10 21 -8 74q6 246 6 251q0 13 -9 15q-1 1 -17 1l-52 -6q-59 -9 -59 -21q0 -8 13 -20l42 -43q2 -28 3 -46t1 -26v-27q0 -83 -24 -131q-23 -49 -64 -49q-85 0 -85 163v27l8 116q3 41 3 49q0 11 -3 12q-2 2 -14 2l-88 -17q-27 -5 -27 -15
q0 -8 10 -18q10 -11 31 -31v-220q0 -51 39 -92q41 -39 91 -39q32 0 113 63q21 -27 49 -44q7 -3 13 -6t13 -5zM328 620q0 4 -6 4h-84l-65 -111q-3 -6 -3 -9q0 -4 6 -4h44l98 106q10 10 10 14z" />
    <glyph glyph-name="ucircumflex" unicode="&#xfb;" horiz-adv-x="416" 
d="M417 35q-38 28 -45 42q-10 21 -8 74q6 246 6 251q0 13 -9 15q-1 1 -17 1l-52 -6q-59 -9 -59 -21q0 -8 13 -20l42 -43q2 -28 3 -46t1 -26v-27q0 -83 -24 -131q-23 -49 -64 -49q-85 0 -85 163v27l8 116q3 41 3 49q0 11 -3 12q-2 2 -14 2l-88 -17q-27 -5 -27 -15
q0 -8 10 -18q10 -11 31 -31v-220q0 -51 39 -92q41 -39 91 -39q32 0 113 63q21 -27 49 -44q7 -3 13 -6t13 -5zM222 618l84 -101q8 -11 8 -13q0 -4 -5 -4h-76l-36 69l-36 -69h-76q-5 0 -5 4q0 2 8 13l84 101q0 5 4 6h42q4 -1 4 -6z" />
    <glyph glyph-name="udieresis" unicode="&#xfc;" horiz-adv-x="416" 
d="M417 35q-38 28 -45 42q-10 21 -8 74q6 246 6 251q0 13 -9 15q-1 1 -17 1l-52 -6q-59 -9 -59 -21q0 -8 13 -20l42 -43q2 -28 3 -46t1 -26v-27q0 -83 -24 -131q-23 -49 -64 -49q-85 0 -85 163v27l8 116q3 41 3 49q0 11 -3 12q-2 2 -14 2l-88 -17q-27 -5 -27 -15
q0 -8 10 -18q10 -11 31 -31v-220q0 -51 39 -92q41 -39 91 -39q32 0 113 63q21 -27 49 -44q7 -3 13 -6t13 -5zM244 611q0 13 -18 13h-48q-9 0 -15 -15q-5 -14 -10 -30q-23 -55 -23 -66q0 -13 23 -13q4 0 19 17l48 53q24 27 24 41zM351 611q0 13 -17 13h-48q-10 0 -15 -15
q-6 -14 -11 -30q-22 -55 -22 -66q0 -13 22 -13q4 0 20 17l48 53q23 27 23 41z" />
    <glyph glyph-name="yacute" unicode="&#xfd;" horiz-adv-x="398" 
d="M380 401q0 8 -11 14q-11 7 -25 7q-32 0 -32 -12q0 -1 2 -7t4 -13q3 -7 5 -15t2 -15q0 -4 -1 -7q0 -3 -1 -7q-18 -82 -31 -125q-14 -38 -25 -65q-10 -27 -17 -44q-8 18 -46 119q-17 43 -26 68q-10 25 -15 33q-52 89 -106 92q-19 -2 -40 -17q-20 -18 -20 -29l15 -9l45 -29
q21 -12 36 -48l66 -151q38 -87 51 -144l-19 -46q-7 -19 -12 -30q-112 -227 -112 -235q0 -10 32 -33q33 -24 41 -24q14 0 59 58l-56 39q-6 4 -6 19q0 10 29 69l32 66q13 27 18 41q88 211 142 397q22 75 22 83zM348 620q0 4 -6 4h-84l-64 -111q-4 -6 -3 -9q0 -4 6 -4h44
l98 106q9 10 9 14z" />
    <glyph glyph-name="thorn" unicode="&#xfe;" horiz-adv-x="571" 
d="M537 207q0 77 -31 134q-37 67 -108 75h-4q-11 0 -30 -1t-48 -3l-53 -5q-21 -1 -30 -3q-5 -1 -11 -1l-12 -2q-21 -4 -33 -4q-9 0 -9 3v150q-73 -26 -163 -26v-3v-15q42 2 60 -23q11 -14 11 -158q0 -500 -13 -664q-17 -5 -32 -15l9 -24q92 31 240 31v29l-102 -4
q-26 -2 -26 41q0 24 15 278q19 -3 61 -3q131 0 213 48q96 56 96 165zM446 199q-1 -36 -20 -70q-18 -34 -48 -51q-37 -22 -135 -22q-26 0 -38 5q-29 13 -36 32q-7 13 -7 46v117q0 46 33 77q27 26 74 26q8 0 17 -1q71 -6 113 -42q48 -40 48 -111q0 -3 -1 -6z" />
    <glyph glyph-name="ydieresis" unicode="&#xff;" horiz-adv-x="398" 
d="M380 401q0 8 -11 14q-11 7 -25 7q-32 0 -32 -12q0 -1 2 -7t4 -13q3 -7 5 -15t2 -15q0 -4 -1 -7q0 -3 -1 -7q-18 -82 -31 -125q-14 -38 -25 -65q-10 -27 -17 -44q-8 18 -46 119q-17 43 -26 68q-10 25 -15 33q-52 89 -106 92q-19 -2 -40 -17q-20 -18 -20 -29l15 -9l45 -29
q21 -12 36 -48l66 -151q38 -87 51 -144l-19 -46q-7 -19 -12 -30q-112 -227 -112 -235q0 -10 32 -33q33 -24 41 -24q14 0 59 58l-56 39q-6 4 -6 19q0 10 29 69l32 66q13 27 18 41q88 211 142 397q22 75 22 83zM264 611q0 13 -17 13h-48q-10 0 -15 -15q-6 -14 -11 -30
q-22 -55 -22 -66q0 -13 22 -13q4 0 20 17l48 53q23 27 23 41zM372 611q0 13 -18 13h-48q-9 0 -15 -15q-5 -14 -10 -30q-23 -55 -23 -66q0 -13 23 -13q4 0 19 17l48 53q24 27 24 41z" />
    <glyph glyph-name="OE" unicode="&#x152;" horiz-adv-x="1218" 
d="M602 291q0 -256 -171 -256q-124 0 -207 101q-82 104 -82 255q0 121 52 189q51 67 141 67q121 0 193 -97q74 -97 74 -259zM1196 437q-28 -2 -112 -7q0 50 42 139l27 49q11 21 19 33q-11 4 -33 13l-31 -44t-22 -29q-108 99 -163 99q-26 0 -94 -20l-56 -19q-23 -9 -37 -17
q-41 -25 -71 -80q-85 141 -290 141q-166 0 -253 -95q-86 -96 -86 -268q0 -83 22 -148q23 -65 66 -110q43 -44 104 -68q62 -23 139 -23q203 0 293 139q78 -138 251 -138q74 0 206 48v-158l45 25q1 145 6 234q17 210 28 304zM1050 425q-73 -2 -292 -9h-4q-32 0 -32 35
q0 39 30 101q36 76 88 76q94 0 210 -203zM1140 343l-20 -255q-89 -27 -139 -27q-99 0 -180 73q-81 75 -85 170q1 5 1 9v10q6 20 86 20h337z" />
    <glyph glyph-name="oe" unicode="&#x153;" horiz-adv-x="611" 
d="M294 140q-5 -100 -51 -100q-31 0 -56 15t-44 40q-18 27 -28 64t-10 82q0 143 64 143q24 0 44 -13q20 -14 36 -37q16 -24 27 -56t16 -71q-1 -5 -1 -10v-11q0 -24 3 -46zM620 361q-5 6 -19 24l-39 -24q-43 62 -84 62q-39 0 -74 -17l-22 -16l-33 -25q-34 73 -115 73
q-88 0 -147 -70q-59 -69 -59 -171q0 -93 42 -153q43 -59 109 -59q30 0 75 24q41 24 63 49q41 -74 129 -74q28 0 54 16l107 71l-18 30l-77 -50q-9 -6 -22 -6q-38 0 -72 39q-37 41 -37 96q0 18 3 32l151 90zM488 330q0 -11 -17 -22l-89 -51q2 27 7 50q4 23 9 42q8 29 40 29
q13 0 31 -21q19 -19 19 -27z" />
    <glyph glyph-name="Scaron" unicode="&#x160;" horiz-adv-x="612" 
d="M574 273q0 37 -7 63q-7 25 -24 43t-43 30q-27 11 -67 18q20 62 37 93q16 29 61 86l-31 22l-49 -66q-7 -6 -12 -6q-12 0 -74 50q-64 51 -98 51q-89 0 -157 -74q-69 -75 -69 -168q0 -154 105 -154q23 0 137 31q113 32 136 32q28 0 49 -29q20 -29 20 -72q0 -45 -17 -102
q-17 -54 -37 -71q-19 -16 -75 -16q-83 0 -177 54l-103 59q-7 -30 -12 -54l-11 -41l-30 -86l-21 -57l30 -18l53 136q16 -9 33 -16l33 -16q43 -19 82 -19q157 0 248 79q90 78 90 218zM391 430q0 -6 -2 -11q-3 -4 -10 -8q-6 -4 -19 -8t-33 -9l-104 -25q-12 -4 -27 -4
q-66 0 -66 88q0 147 78 147q37 0 85 -51q15 -17 31 -33l31 -33q36 -39 36 -53zM292 724l84 101q8 12 8 14q0 4 -5 4h-76l-36 -70q-9 18 -37 70h-75q-5 0 -5 -4q0 -2 8 -14l84 -101q0 -4 4 -5h42q4 1 4 5z" />
    <glyph glyph-name="scaron" unicode="&#x161;" horiz-adv-x="340" 
d="M311 150q0 81 -75 105q-76 18 -108 25q-9 2 -16 16q-8 14 -8 26t6 23q5 10 13 19t19 14t22 5q23 0 37 -23l8 -18l8 -18q25 0 44 12q19 13 19 30q0 23 -19 39t-47 16l-58 -6q-127 -14 -127 -129q0 -74 56 -84l85 -18q66 -13 66 -82q0 -27 -18 -47q-17 -20 -40 -20
q-14 0 -35 11q-11 7 -20 15t-14 18q-8 16 -13 28t-7 20q-10 0 -36 -17q-13 -10 -16 -13q-6 -8 -6 -30q0 -33 32 -58q35 -23 77 -23q68 0 119 50q52 50 52 114zM202 505l84 101q8 11 8 14q0 4 -5 4h-76q-9 -18 -37 -70l-36 70h-75q-6 0 -6 -4q0 -3 9 -14l84 -101q0 -4 4 -5
h42q4 1 4 5z" />
    <glyph glyph-name="Ydieresis" unicode="&#x178;" horiz-adv-x="502" 
d="M503 638q0 6 -13 12t-31 6h-16q-6 -1 -10 -5q-3 -3 -4 -10q-2 -7 -5 -19l-2 -21q0 -10 -1 -20q-2 -18 -9 -38q-6 -21 -18 -46q-11 -27 -25 -53l-28 -52q-31 -55 -39 -55q-16 0 -176 319q-6 6 -13 6h-5l-90 -33q-14 -5 -14 -21q0 -11 34 -14l192 -336q-1 -37 -7 -147
q-5 -89 -57 -99q-46 -11 -65 -15v-31q12 0 87 16q78 14 182 14h77v31l-96 4q-25 1 -25 94v147l129 251q48 94 48 115zM426 773q-29 51 -51 68l-61 -57q27 -54 48 -65q27 8 64 54zM266 773q-27 49 -52 68l-60 -57q28 -54 49 -65q22 7 63 54z" />
    <glyph glyph-name="florin" unicode="&#x192;" horiz-adv-x="512" 
d="M513 639q-46 58 -50 62q-17 17 -33 17h-7q-14 -1 -53 -26q-23 -14 -40 -29q-17 -16 -30 -32q-38 -48 -60 -154l-33 -147h-73l-49 -48q3 -2 12 -7q4 4 16 14h86l-69 -322q-16 -78 -42 -111q-14 1 -34 27q-1 2 -9 14l-22 34l-68 -52q15 -18 23 -30q12 -14 17 -22
q6 -8 7 -10q10 -13 25 -13q5 0 20 6q31 15 50 25t26 15q73 53 101 186l55 253h81q11 11 42 46q-2 1 -9 6l-11 -11h-95l44 201q14 69 24 95q3 9 9 20l14 25l9 -9q7 -8 21 -22q14 -16 23 -29q9 -12 14 -20z" />
    <glyph glyph-name="circumflex" unicode="&#x2c6;" 
d="M212 618l84 -101q8 -11 8 -13q0 -4 -5 -4h-76l-37 69l-35 -69h-76q-5 0 -5 4q0 2 8 13l84 101q0 5 4 6h42q4 -1 4 -6z" />
    <glyph glyph-name="tilde" unicode="&#x2dc;" 
d="M325 569q-2 0 -8 -2q-5 -3 -11 -6q-6 -2 -13 -4q-7 -3 -11 -3q-18 0 -48 10q-29 10 -70 10q-37 0 -81 -30q-34 -24 -34 -41q0 -8 2 -8q-1 0 18 10q18 11 52 11q5 0 16 -2q10 -2 28 -6q38 -8 58 -8q26 0 55 16q17 11 33 23q17 11 17 24q0 4 -3 6z" />
    <glyph glyph-name="endash" unicode="&#x2013;" horiz-adv-x="512" 
d="M506 272q0 15 -31 15h-4q-128 -5 -385 -14q-47 -1 -47 -37q0 -12 8 -21q8 -10 19 -10q129 3 387 8q21 0 37 19t16 40z" />
    <glyph glyph-name="emdash" unicode="&#x2014;" horiz-adv-x="1024" 
d="M1022 272q0 15 -31 15h-4q-300 -5 -901 -14q-47 -1 -47 -37q0 -12 8 -21q8 -10 19 -10q301 3 903 8q21 0 37 19t16 40z" />
    <glyph glyph-name="quoteleft" unicode="&#x2018;" horiz-adv-x="236" 
d="M197 694q0 25 -12 25q-11 0 -17 -6l-114 -124q-6 -7 -6 -14q0 -10 10 -20l58 -55q3 -4 7 -4q6 0 13 8l58 59q5 6 5 13t-6 15l-41 50l7 8l24 25q14 13 14 20z" />
    <glyph glyph-name="quoteright" unicode="&#x2019;" horiz-adv-x="236" 
d="M193 626q6 6 6 14q0 9 -11 19l-57 56q-3 3 -7 3q-6 0 -13 -7l-58 -60q-5 -6 -5 -12q0 -7 6 -15l41 -51l-7 -8l-25 -24q-13 -14 -13 -21q0 -24 11 -24q12 0 18 6z" />
    <glyph glyph-name="quotesinglbase" unicode="&#x201a;" horiz-adv-x="236" 
d="M193 16q6 7 6 15q0 9 -11 19l-57 55q-3 4 -7 4q-6 0 -13 -8q-20 -19 -58 -59q-5 -6 -5 -13t6 -15l41 -49l-7 -8l-25 -25q-13 -13 -13 -20q0 -25 11 -25q12 0 18 7z" />
    <glyph glyph-name="quotedblleft" unicode="&#x201c;" horiz-adv-x="386" 
d="M358 694q0 25 -11 25t-17 -6l-114 -124q-6 -7 -6 -14q0 -10 10 -20l58 -55q3 -4 7 -4q6 0 13 8l57 59q6 6 6 13t-7 15q-13 17 -41 50l8 8l24 25q13 13 13 20zM182 694q0 25 -11 25t-17 -6l-114 -124q-6 -7 -6 -14q0 -10 10 -20l57 -55q4 -4 7 -4q6 0 14 8l57 59q6 6 6 13
q-1 7 -7 15q-13 17 -41 50l8 8l24 25q13 13 13 20z" />
    <glyph glyph-name="quotedblright" unicode="&#x201d;" horiz-adv-x="387" 
d="M352 626q7 6 7 14q-1 9 -11 19l-57 56q-3 3 -7 3q-6 0 -14 -7l-57 -60q-5 -6 -5 -12q0 -7 6 -15l41 -51l-8 -8q-7 -8 -24 -24q-13 -14 -13 -21q0 -24 11 -24t18 6zM182 626q7 6 7 14q-1 9 -11 19l-57 56q-3 3 -7 3q-6 0 -14 -7l-57 -60q-5 -6 -5 -12q0 -7 6 -15l41 -51
l-8 -8q-7 -8 -24 -24q-13 -14 -13 -21q0 -24 11 -24t18 6z" />
    <glyph glyph-name="quotedblbase" unicode="&#x201e;" horiz-adv-x="387" 
d="M352 16q7 7 7 15q-1 9 -11 19l-57 55q-3 4 -7 4q-6 0 -14 -8l-57 -59q-5 -6 -5 -13t6 -15l41 -49l-8 -8q-7 -8 -24 -25q-13 -13 -13 -20q0 -25 11 -25t18 7zM182 16q7 7 7 15q-1 9 -11 19l-57 55q-3 4 -7 4q-6 0 -14 -8l-57 -59q-5 -6 -5 -13t6 -15l41 -49l-8 -8
q-7 -8 -24 -25q-13 -13 -13 -20q0 -25 11 -25t18 7z" />
    <glyph glyph-name="dagger" unicode="&#x2020;" horiz-adv-x="359" 
d="M343 394v93l-145 -29l27 229h-87l28 -229l-148 29v-11v-82q37 8 147 30l-35 -597h100l-32 597q36 -7 145 -30z" />
    <glyph glyph-name="daggerdbl" unicode="&#x2021;" horiz-adv-x="359" 
d="M343 25v93q-36 -8 -145 -30q4 42 19 168q-5 42 -19 168q36 -7 145 -30v93l-145 -29l27 229h-87l28 -229l-148 29v-11v-82q37 8 147 30l-20 -168l20 -168q-37 7 -147 30v-93l148 29l-28 -227h87l-27 227z" />
    <glyph glyph-name="bullet" unicode="&#x2022;" horiz-adv-x="346" 
d="M323 321q0 157 -116 157q-76 0 -126 -55q-50 -53 -50 -139q0 -78 35 -125q35 -46 94 -46q27 0 69 25q56 32 74 71q20 38 20 112z" />
    <glyph glyph-name="ellipsis" unicode="&#x2026;" horiz-adv-x="1024" 
d="M248 7q8 10 8 17t-11 16l-55 44q-3 3 -7 3q-6 0 -11 -6l-44 -50q-8 -11 -8 -17q0 -8 10 -15l48 -42q7 -6 13 -6q7 0 14 7zM588 7q8 10 8 17t-11 16l-55 44q-3 3 -7 3q-6 0 -11 -6l-44 -50q-8 -11 -8 -17q0 -8 10 -15l48 -42q7 -6 13 -6q7 0 14 7zM928 7q8 10 8 17t-11 16
l-55 44q-3 3 -7 3q-6 0 -11 -6l-44 -50q-8 -11 -8 -17q0 -8 10 -15l48 -42q7 -6 13 -6q7 0 14 7z" />
    <glyph glyph-name="perthousand" unicode="&#x2030;" horiz-adv-x="691" 
d="M248 480q0 127 -86 127q-50 0 -88 -43q-38 -42 -38 -98q0 -62 26 -95q27 -34 73 -34q113 0 113 143zM419 580q1 2 1 6q0 16 -21 16q-26 0 -35 -19l-255 -511l-29 -52t-35 -53q-27 -39 -27 -50q0 -4 18 -9q18 -4 37 -4q18 0 27 6zM429 103q0 120 -80 120q-27 0 -51 -11
q-23 -11 -39 -32q-15 -19 -25 -47q-9 -28 -9 -61q0 -56 23 -87t63 -31q118 0 118 149zM198 436q0 -69 -38 -69q-29 0 -51 36q-23 38 -23 75q0 36 13 64q14 30 31 30q31 0 49 -37q19 -37 19 -99zM379 66q0 -77 -38 -77q-29 0 -48 26q-20 26 -20 67q0 47 12 77q11 30 28 30
q14 0 25 -9q12 -10 21 -26q10 -17 15 -40t5 -48zM658 106q0 120 -79 120q-28 0 -51 -11t-40 -32q-15 -19 -24 -47q-9 -27 -9 -61q0 -56 23 -87t63 -31q117 0 117 149zM608 69q0 -77 -38 -77q-28 0 -48 26q-19 26 -19 67q0 47 11 77q11 31 29 31q13 0 25 -10t21 -26
q9 -17 14 -40t5 -48z" />
    <glyph glyph-name="guilsinglleft" unicode="&#x2039;" horiz-adv-x="222" 
d="M186 100l-63 163l63 150h-24l-119 -134q-12 -15 -12 -22q0 -8 12 -21l119 -135q6 0 24 -1z" />
    <glyph glyph-name="guilsinglright" unicode="&#x203a;" horiz-adv-x="222" 
d="M185 257q0 7 -12 22l-120 134h-23l64 -150l-64 -163q6 1 23 1l120 135q12 13 12 21z" />
    <glyph glyph-name="trademark" unicode="&#x2122;" horiz-adv-x="1208" 
d="M1177 187v30q-21 4 -81 17v370q0 27 7 37q10 14 45 16v33l-127 -20h-64v-31h38q13 0 13 -8q0 -16 -41 -102q-95 -211 -99 -211q-1 0 -13 33l-56 147q-6 16 -24 51q-17 35 -46 90q14 5 41 16q-3 8 -10 31q-4 0 -47 -16q-36 -13 -60 -13h-92v-31h67q20 0 20 -32
q0 -41 -24 -180l-27 -151q-8 -43 -65 -49v-31q2 0 10 1l23 3q16 2 28 3t22 1q54 0 93 -3v34h-67q-15 0 -9 19l48 320l38 -69q17 -34 32 -67q32 -76 55 -164q6 -23 10 -36q3 -13 4 -16q6 -13 21 -13q12 0 19 16q5 11 10 24q4 12 10 24l101 214q29 63 34 63q4 0 4 -79v-196
q0 -32 -23 -32h-27v-34q4 0 43 3q38 3 48 3q31 0 66 -6zM548 700q0 17 -31 29l-36 -24q13 -15 13 -21q0 -22 -33 -20q-116 2 -348 8q-47 1 -75 -24q-27 -24 -27 -67q0 -20 17 -35l19 10q-4 17 -4 29q0 28 117 28q53 0 66 -8t13 -47v-246q0 -36 -10 -76q-23 -5 -42 -7
q-18 -2 -31 -4q-33 -6 -43 -9v-34q96 18 144 18q30 0 75 -1t104 -3v29q-25 3 -99 11q-13 3 -13 22v341q113 2 172 33q52 25 52 68z" />
    <glyph glyph-name="unie000" unicode="&#xe000;" horiz-adv-x="0" 
 />
    <glyph glyph-name="unie001" unicode="&#xe001;" horiz-adv-x="225" 
 />
    <glyph glyph-name="unie002" unicode="&#xe002;" horiz-adv-x="512" 
 />
  </font>
</defs>
</svg>
