<?xml version="1.0" standalone="no"?>
<!DOCTYPE svg PUBLIC "-//W3C//DTD SVG 20010904//EN"
 "http://www.w3.org/TR/2001/REC-SVG-20010904/DTD/svg10.dtd">
<svg version="1.0" xmlns="http://www.w3.org/2000/svg"
 width="600.000000pt" height="600.000000pt" viewBox="0 0 600.000000 600.000000"
 preserveAspectRatio="xMidYMid meet">
<metadata>
Created by potrace 1.13, written by Peter Selinger 2001-2015
</metadata>
<g transform="translate(0.000000,600.000000) scale(0.100000,-0.100000)"
fill="#000000" stroke="none">
<path d="M195 5975 c17 -14 38 -28 48 -31 11 -3 16 -12 13 -20 -3 -9 8 -23 29
-37 19 -12 36 -30 38 -39 3 -10 26 -30 51 -45 25 -16 43 -34 41 -41 -2 -7 11
-22 30 -35 19 -12 36 -30 38 -39 3 -10 26 -30 51 -45 25 -16 43 -34 41 -41 -2
-7 11 -22 30 -35 19 -12 36 -30 38 -39 3 -10 26 -30 51 -45 25 -16 43 -34 41
-41 -2 -7 11 -22 30 -35 19 -12 35 -28 35 -35 0 -7 18 -25 40 -40 21 -15 39
-33 40 -40 0 -7 18 -25 40 -40 21 -15 39 -33 40 -40 0 -7 18 -25 40 -40 21
-15 39 -33 40 -40 0 -7 18 -25 40 -40 21 -15 39 -33 40 -40 0 -7 18 -25 40
-40 21 -15 39 -33 40 -40 0 -7 18 -25 40 -40 21 -15 39 -33 40 -40 0 -7 18
-25 40 -40 21 -15 39 -33 40 -40 0 -7 18 -25 40 -40 21 -15 39 -33 40 -40 0
-7 18 -25 40 -40 21 -15 39 -33 40 -40 0 -7 18 -25 40 -40 21 -15 39 -33 40
-40 0 -7 18 -25 40 -40 21 -15 39 -33 40 -40 0 -7 18 -25 40 -40 21 -15 39
-33 40 -40 0 -7 18 -25 40 -40 21 -15 39 -33 40 -40 0 -7 18 -25 40 -40 21
-15 39 -33 40 -40 0 -7 18 -25 40 -40 21 -15 39 -33 40 -40 0 -7 18 -25 40
-40 21 -15 39 -33 40 -40 0 -7 18 -25 40 -40 21 -15 39 -33 40 -40 0 -7 18
-25 40 -40 21 -15 39 -33 40 -40 0 -7 18 -25 40 -40 21 -15 39 -33 40 -40 0
-7 18 -25 40 -40 21 -15 39 -33 40 -40 0 -7 18 -25 40 -40 21 -15 39 -33 40
-40 0 -7 18 -25 40 -40 21 -15 39 -33 40 -40 0 -7 18 -25 40 -40 21 -15 39
-33 40 -40 0 -7 18 -25 40 -40 21 -15 39 -33 40 -40 0 -7 18 -25 40 -40 21
-15 39 -33 40 -40 0 -7 18 -25 40 -40 21 -15 39 -33 40 -40 0 -7 18 -25 40
-40 21 -15 39 -33 40 -40 0 -7 18 -25 40 -40 21 -15 39 -33 40 -40 0 -7 18
-25 40 -40 21 -15 39 -33 40 -40 0 -7 18 -25 40 -40 21 -15 39 -33 40 -40 0
-7 18 -25 40 -40 21 -15 39 -33 40 -40 0 -7 18 -25 40 -40 21 -15 39 -33 40
-40 0 -7 18 -25 40 -40 21 -15 39 -33 40 -40 0 -7 18 -25 40 -40 21 -15 39
-33 40 -40 0 -7 18 -25 40 -40 21 -15 39 -33 40 -40 0 -7 18 -25 40 -40 21
-15 39 -33 40 -40 0 -7 18 -25 40 -40 21 -15 39 -33 40 -40 0 -7 18 -25 40
-40 21 -15 39 -33 40 -40 0 -7 18 -25 40 -40 21 -15 39 -33 40 -40 0 -7 18
-25 40 -40 21 -15 39 -33 40 -40 0 -7 18 -25 40 -40 21 -15 39 -33 40 -40 0
-7 18 -25 40 -40 21 -15 39 -33 40 -40 0 -7 18 -25 40 -40 21 -15 39 -33 40
-40 0 -7 18 -25 40 -40 21 -15 39 -33 40 -40 0 -7 18 -25 40 -40 21 -15 39
-33 40 -40 0 -7 18 -25 40 -40 21 -15 39 -33 40 -40 0 -7 18 -25 40 -40 21
-15 39 -33 40 -40 0 -7 18 -25 40 -40 21 -15 39 -33 40 -40 0 -7 18 -25 40
-40 21 -15 39 -33 40 -40 0 -7 18 -25 40 -40 21 -15 39 -33 40 -40 0 -7 18
-25 40 -40 21 -15 39 -33 40 -40 0 -7 18 -25 40 -40 21 -15 39 -33 40 -40 0
-7 18 -25 40 -40 21 -15 39 -33 40 -40 0 -7 18 -25 40 -40 21 -15 39 -33 40
-40 0 -7 18 -25 40 -40 21 -15 39 -33 40 -40 0 -7 18 -25 40 -40 21 -15 39
-33 40 -40 0 -7 18 -25 40 -40 21 -15 39 -33 40 -40 0 -7 18 -25 40 -40 21
-15 39 -33 40 -40 0 -7 18 -25 40 -40 21 -15 39 -33 40 -40 0 -7 18 -25 40
-40 21 -15 39 -33 40 -40 0 -7 18 -25 40 -40 21 -15 39 -33 40 -40 0 -7 18
-25 40 -40 21 -15 39 -33 40 -40 0 -7 18 -25 40 -40 21 -15 39 -33 40 -40 0
-7 18 -25 40 -40 21 -15 39 -32 40 -39 0 -12 60 -63 73 -63 4 0 7 1307 7 2905
l0 2905 -2917 0 -2918 -1 30 -24z"/>
</g>
</svg>
